<svg xmlns="http://www.w3.org/2000/svg" xmlns:xlink="http://www.w3.org/1999/xlink" xmlns:lucid="lucid" width="2320" height="928.33"><g transform="translate(460 -291.66666666666663)" lucid:page-tab-id="0_0"><path d="M500 343.67a32 32 0 0 1 32-32h336a32 32 0 0 1 32 32v186a32 32 0 0 1-32 32H532a32 32 0 0 1-32-32z" stroke="#000" stroke-opacity="0" fill="#1699d3"/><use xlink:href="#a" transform="matrix(1,0,0,1,505,316.66666666666663) translate(89.13580246913583 65.55555555555554)"/><use xlink:href="#b" transform="matrix(1,0,0,1,505,316.66666666666663) translate(29.40740740740742 104.66666666666666)"/><use xlink:href="#c" transform="matrix(1,0,0,1,505,316.66666666666663) translate(223.1851851851852 104.66666666666666)"/><use xlink:href="#d" transform="matrix(1,0,0,1,505,316.66666666666663) translate(283.77777777777777 104.66666666666666)"/><use xlink:href="#e" transform="matrix(1,0,0,1,505,316.66666666666663) translate(44.11111111111114 136.66666666666666)"/><use xlink:href="#f" transform="matrix(1,0,0,1,505,316.66666666666663) translate(98.7777777777778 136.66666666666666)"/><use xlink:href="#g" transform="matrix(1,0,0,1,505,316.66666666666663) translate(205.2962962962963 136.66666666666666)"/><use xlink:href="#h" transform="matrix(1,0,0,1,505,316.66666666666663) translate(288.1111111111111 136.66666666666666)"/><use xlink:href="#i" transform="matrix(1,0,0,1,505,316.66666666666663) translate(64.96296296296299 168.66666666666666)"/><use xlink:href="#j" transform="matrix(1,0,0,1,505,316.66666666666663) translate(159.48148148148152 168.66666666666666)"/><use xlink:href="#k" transform="matrix(1,0,0,1,505,316.66666666666663) translate(197.92592592592595 168.66666666666666)"/><use xlink:href="#l" transform="matrix(1,0,0,1,505,316.66666666666663) translate(63.44444444444443 200.66666666666666)"/><use xlink:href="#m" transform="matrix(1,0,0,1,505,316.66666666666663) translate(109.29629629629628 200.66666666666666)"/><path d="M0 343.67a32 32 0 0 1 32-32h314.67a32 32 0 0 1 32 32v186a32 32 0 0 1-32 32H32a32 32 0 0 1-32-32z" stroke="#000" stroke-opacity="0" fill="#f08705"/><use xlink:href="#n" transform="matrix(1,0,0,1,5,316.66666666666663) translate(113.14197530864199 65.55555555555554)"/><use xlink:href="#o" transform="matrix(1,0,0,1,5,316.66666666666663) translate(31.500000000000057 104.66666666666666)"/><use xlink:href="#p" transform="matrix(1,0,0,1,5,316.66666666666663) translate(132.01851851851853 104.66666666666666)"/><use xlink:href="#q" transform="matrix(1,0,0,1,5,316.66666666666663) translate(214.83333333333334 104.66666666666666)"/><use xlink:href="#r" transform="matrix(1,0,0,1,5,316.66666666666663) translate(61.944444444444485 136.66666666666663)"/><use xlink:href="#s" transform="matrix(1,0,0,1,5,316.66666666666663) translate(125.42592592592595 136.66666666666663)"/><use xlink:href="#t" transform="matrix(1,0,0,1,5,316.66666666666663) translate(219.94444444444443 136.66666666666663)"/><use xlink:href="#u" transform="matrix(1,0,0,1,5,316.66666666666663) translate(58.092592592592624 168.66666666666663)"/><use xlink:href="#v" transform="matrix(1,0,0,1,5,316.66666666666663) translate(167.57407407407408 168.66666666666663)"/><use xlink:href="#w" transform="matrix(1,0,0,1,5,316.66666666666663) translate(214.83333333333331 168.66666666666663)"/><use xlink:href="#x" transform="matrix(1,0,0,1,5,316.66666666666663) translate(83.31481481481482 200.66666666666663)"/><path d="M1020 343.67a32 32 0 0 1 32-32h316a32 32 0 0 1 32 32v186a32 32 0 0 1-32 32h-316a32 32 0 0 1-32-32z" stroke="#000" stroke-opacity="0" fill="#736ca8"/><use xlink:href="#y" transform="matrix(1,0,0,1,1025.00005,316.66666666666663) translate(122.46913580246914 80.55555555555554)"/><use xlink:href="#z" transform="matrix(1,0,0,1,1025.00005,316.66666666666663) translate(89.70370370370372 119.66666666666666)"/><use xlink:href="#A" transform="matrix(1,0,0,1,1025.00005,316.66666666666663) translate(153.25925925925927 119.66666666666666)"/><use xlink:href="#B" transform="matrix(1,0,0,1,1025.00005,316.66666666666663) translate(86.74074074074076 151.66666666666663)"/><use xlink:href="#C" transform="matrix(1,0,0,1,1025.00005,316.66666666666663) translate(147.33333333333334 151.66666666666663)"/><use xlink:href="#D" transform="matrix(1,0,0,1,1025.00005,316.66666666666663) translate(221.18518518518516 151.66666666666663)"/><use xlink:href="#E" transform="matrix(1,0,0,1,1025.00005,316.66666666666663) translate(95.55555555555557 183.66666666666663)"/><use xlink:href="#F" transform="matrix(1,0,0,1,1025.00005,316.66666666666663) translate(141.40740740740742 183.66666666666663)"/><path d="M500 692a32 32 0 0 1 32-32h336a32 32 0 0 1 32 32v186a32 32 0 0 1-32 32H532a32 32 0 0 1-32-32z" stroke="#000" stroke-opacity="0" fill="#e85642"/><use xlink:href="#G" transform="matrix(1,0,0,1,505,665) translate(130.98765432098764 80.55555555555554)"/><use xlink:href="#H" transform="matrix(1,0,0,1,505,665) translate(71.51851851851852 119.66666666666666)"/><use xlink:href="#I" transform="matrix(1,0,0,1,505,665) translate(265.2962962962963 119.66666666666666)"/><use xlink:href="#J" transform="matrix(1,0,0,1,505,665) translate(137.33333333333334 151.66666666666666)"/><use xlink:href="#l" transform="matrix(1,0,0,1,505,665) translate(122.07407407407408 183.66666666666666)"/><use xlink:href="#K" transform="matrix(1,0,0,1,505,665) translate(167.92592592592592 183.66666666666666)"/><path d="M804.83 1180c0 11.05-46.93 20-104.83 20s-104.83-8.95-104.83-20v-160c0-11.05 46.93-20 104.83-20s104.83 8.95 104.83 20z" stroke="#fff" fill="#e85642"/><path d="M804.83 1020c0 11.05-46.93 20-104.83 20s-104.83-8.95-104.83-20" stroke="#fff" fill="none"/><g><use xlink:href="#L" transform="matrix(1,0,0,1,600.1666666666667,1045) translate(21.135802469135825 80.00694444444443)"/></g><path d="M-180 436.67c0 69.03-58.2 125-130 125s-130-55.97-130-125c0-69.04 58.2-125 130-125s130 55.96 130 125z" stroke="#2f5b7c" stroke-width="10" fill="#fff"/><g><use xlink:href="#M" transform="matrix(1,0,0,1,-435,316.66666666666663) translate(61.31364197530866 79.55555555555556)"/><use xlink:href="#N" transform="matrix(1,0,0,1,-435,316.66666666666663) translate(17.240740740740762 108.88888888888889)"/><use xlink:href="#O" transform="matrix(1,0,0,1,-435,316.66666666666663) translate(75.5679012345679 108.88888888888889)"/><use xlink:href="#P" transform="matrix(1,0,0,1,-435,316.66666666666663) translate(184.00617283950615 108.88888888888889)"/><use xlink:href="#Q" transform="matrix(1,0,0,1,-435,316.66666666666663) translate(22.0277777777778 138.2222222222222)"/><use xlink:href="#R" transform="matrix(1,0,0,1,-435,316.66666666666663) translate(65.34876543209879 138.2222222222222)"/><use xlink:href="#S" transform="matrix(1,0,0,1,-435,316.66666666666663) translate(122.25 138.2222222222222)"/><use xlink:href="#T" transform="matrix(1,0,0,1,-435,316.66666666666663) translate(164.28086419753086 138.2222222222222)"/><use xlink:href="#U" transform="matrix(1,0,0,1,-435,316.66666666666663) translate(42.30129629629631 167.55555555555554)"/></g><path d="M1840 436.67c0 69.03-58.2 125-130 125s-130-55.97-130-125c0-69.04 58.2-125 130-125s130 55.96 130 125z" stroke="#2f5b7c" stroke-width="10" fill="#fff"/><g><use xlink:href="#M" transform="matrix(1,0,0,1,1585,316.66666666666663) translate(61.31364197530866 79.55555555555556)"/><use xlink:href="#N" transform="matrix(1,0,0,1,1585,316.66666666666663) translate(70.78086419753087 108.88888888888889)"/><use xlink:href="#V" transform="matrix(1,0,0,1,1585,316.66666666666663) translate(129.10802469135803 108.88888888888889)"/><use xlink:href="#Q" transform="matrix(1,0,0,1,1585,316.66666666666663) translate(49.120370370370395 138.2222222222222)"/><use xlink:href="#W" transform="matrix(1,0,0,1,1585,316.66666666666663) translate(92.44135802469137 138.2222222222222)"/><use xlink:href="#X" transform="matrix(1,0,0,1,1585,316.66666666666663) translate(66.13462962962964 167.55555555555554)"/><use xlink:href="#Y" transform="matrix(1,0,0,1,1585,316.66666666666663) translate(132.47413580246914 167.55555555555554)"/></g><path d="M-220 386a6 6 0 0 1 6-6H14a6 6 0 0 1 6 6v68a6 6 0 0 1-6 6h-228a6 6 0 0 1-6-6z" stroke="#000" stroke-opacity="0" fill="#fff" fill-opacity="0"/><g><use xlink:href="#Z" transform="matrix(1,0,0,1,-215,385) translate(70.96604938271605 39.24305555555556)"/></g><path d="M-170.5 436.67h137.17" stroke="#5b9bd5" stroke-width="9" fill="none"/><path d="M-170.38 441.17h-4.7l.08-4.48-.03-2.73-.07-1.8h4.72z" stroke="#5b9bd5" stroke-width=".05" fill="#5b9bd5"/><path d="M-14.56 436.67l-14.27 4.63v-9.27z" stroke="#5b9bd5" stroke-width="9" fill="#5b9bd5"/><path d="M1360 386a6 6 0 0 1 6-6h228a6 6 0 0 1 6 6v68a6 6 0 0 1-6 6h-228a6 6 0 0 1-6-6z" stroke="#000" stroke-opacity="0" fill="#fff" fill-opacity="0"/><g><use xlink:href="#aa" transform="matrix(1,0,0,1,1365,385) translate(60.78086419753086 39.24305555555556)"/></g><path d="M1404.5 436.67h137.17M1404.62 436.67H1400" stroke="#5b9bd5" stroke-width="9" fill="none"/><path d="M1560.44 436.67l-14.27 4.63v-9.27z" stroke="#5b9bd5" stroke-width="9" fill="#5b9bd5"/><path d="M383.17 436.67h83.5" stroke="#5b9bd5" stroke-width="9" fill="none"/><path d="M383.28 441.17h-4.6v-9h4.6z" stroke="#5b9bd5" stroke-width=".05" fill="#5b9bd5"/><path d="M485.44 436.67l-14.27 4.63v-9.27z" stroke="#5b9bd5" stroke-width="9" fill="#5b9bd5"/><path d="M904.5 436.67h82.17" stroke="#5b9bd5" stroke-width="9" fill="none"/><path d="M904.6 441.17H900v-9h4.62z" stroke="#5b9bd5" stroke-width=".05" fill="#5b9bd5"/><path d="M1005.44 436.67l-14.27 4.63v-9.27z" stroke="#5b9bd5" stroke-width="9" fill="#5b9bd5"/><path d="M639.68 566.17v60.5" stroke="#5b9bd5" stroke-width="9" fill="none"/><path d="M644.18 566.28h-9v-4.6h9z" stroke="#5b9bd5" stroke-width=".05" fill="#5b9bd5"/><path d="M639.68 645.44l-4.64-14.27h9.27z" stroke="#5b9bd5" stroke-width="9" fill="#5b9bd5"/><path d="M747.5 655.5V595" stroke="#5b9bd5" stroke-width="9" fill="none"/><path d="M752 660h-9v-4.62h9z" stroke="#5b9bd5" stroke-width=".05" fill="#5b9bd5"/><path d="M747.5 576.23l4.63 14.27h-9.26z" stroke="#5b9bd5" stroke-width="9" fill="#5b9bd5"/><path d="M641.52 914.5v55.14" stroke="#5b9bd5" stroke-width="9" fill="none"/><path d="M646.02 914.6h-9V910h9z" stroke="#5b9bd5" stroke-width=".05" fill="#5b9bd5"/><path d="M641.52 988.4l-4.63-14.26h9.26z" stroke="#5b9bd5" stroke-width="9" fill="#5b9bd5"/><path d="M749.72 997.44v-54.11" stroke="#5b9bd5" stroke-width="9" fill="none"/><path d="M754.22 1002.47l-7.24-.86-1.76-.1v-4.18h9z" stroke="#5b9bd5" stroke-width=".05" fill="#5b9bd5"/><path d="M749.72 924.56l4.64 14.27h-9.27z" stroke="#5b9bd5" stroke-width="9" fill="#5b9bd5"/><defs><path fill="#fff" d="M67-125c0 53 21 87 73 88 37 1 54-22 65-47l45 17C233-25 199 4 140 4 58 4 20-42 15-125 8-235 124-281 211-232c18 10 29 29 36 50l-46 12c-8-25-30-41-62-41-52 0-71 34-72 86" id="ab"/><path fill="#fff" d="M110-194c64 0 96 36 96 99 0 64-35 99-97 99-61 0-95-36-95-99 0-62 34-99 96-99zm-1 164c35 0 45-28 45-65 0-40-10-65-43-65-34 0-45 26-45 65 0 36 10 65 43 65" id="ac"/><path fill="#fff" d="M135-194c87-1 58 113 63 194h-50c-7-57 23-157-34-157-59 0-34 97-39 157H25l-1-190h47c2 12-1 28 3 38 12-26 28-41 61-42" id="ad"/><path fill="#fff" d="M115-3C79 11 28 4 28-45v-112H4v-33h27l15-45h31v45h36v33H77v99c-1 23 16 31 38 25v30" id="ae"/><path fill="#fff" d="M135-150c-39-12-60 13-60 57V0H25l-1-190h47c2 13-1 29 3 40 6-28 27-53 61-41v41" id="af"/><path fill="#fff" d="M25 0v-261h50V0H25" id="ag"/><path fill="#fff" d="M185-48c-13 30-37 53-82 52C43 2 14-33 14-96s30-98 90-98c62 0 83 45 84 108H66c0 31 8 55 39 56 18 0 30-7 34-22zm-45-69c5-46-57-63-70-21-2 6-4 13-4 21h74" id="ah"/><g id="a"><use transform="matrix(0.12345679012345677,0,0,0.12345679012345677,0,0)" xlink:href="#ab"/><use transform="matrix(0.12345679012345677,0,0,0.12345679012345677,31.975308641975303,0)" xlink:href="#ac"/><use transform="matrix(0.12345679012345677,0,0,0.12345679012345677,59.012345679012334,0)" xlink:href="#ad"/><use transform="matrix(0.12345679012345677,0,0,0.12345679012345677,86.04938271604937,0)" xlink:href="#ae"/><use transform="matrix(0.12345679012345677,0,0,0.12345679012345677,100.74074074074072,0)" xlink:href="#af"/><use transform="matrix(0.12345679012345677,0,0,0.12345679012345677,118.02469135802467,0)" xlink:href="#ac"/><use transform="matrix(0.12345679012345677,0,0,0.12345679012345677,145.0617283950617,0)" xlink:href="#ag"/><use transform="matrix(0.12345679012345677,0,0,0.12345679012345677,157.40740740740736,0)" xlink:href="#ag"/><use transform="matrix(0.12345679012345677,0,0,0.12345679012345677,169.75308641975303,0)" xlink:href="#ah"/><use transform="matrix(0.12345679012345677,0,0,0.12345679012345677,194.4444444444444,0)" xlink:href="#af"/></g><path fill="#fff" d="M190-63c-7 42-38 67-86 67-59 0-84-38-90-98-12-110 154-137 174-36l-49 2c-2-19-15-32-35-32-30 0-35 28-38 64-6 74 65 87 74 30" id="ai"/><path fill="#fff" d="M220-157c-53 9-28 100-34 157h-49v-107c1-27-5-49-29-50C55-147 81-57 75 0H25l-1-190h47c2 12-1 28 3 38 10-53 101-56 108 0 13-22 24-43 59-42 82 1 51 116 57 194h-49v-107c-1-25-5-48-29-50" id="aj"/><path fill="#fff" d="M85 4C-2 5 27-109 22-190h50c7 57-23 150 33 157 60-5 35-97 40-157h50l1 190h-47c-2-12 1-28-3-38-12 25-28 42-61 42" id="ak"/><path fill="#fff" d="M25-224v-37h50v37H25zM25 0v-190h50V0H25" id="al"/><path fill="#fff" d="M133-34C117-15 103 5 69 4 32 3 11-16 11-54c-1-60 55-63 116-61 1-26-3-47-28-47-18 1-26 9-28 27l-52-2c7-38 36-58 82-57s74 22 75 68l1 82c-1 14 12 18 25 15v27c-30 8-71 5-69-32zm-48 3c29 0 43-24 42-57-32 0-66-3-65 30 0 17 8 27 23 27" id="am"/><path fill="#fff" d="M137-138c1-29-70-34-71-4 15 46 118 7 119 86 1 83-164 76-172 9l43-7c4 19 20 25 44 25 33 8 57-30 24-41C81-84 22-81 20-136c-2-80 154-74 161-7" id="an"/><g id="b"><use transform="matrix(0.07407407407407407,0,0,0.07407407407407407,0,0)" xlink:href="#ai"/><use transform="matrix(0.07407407407407407,0,0,0.07407407407407407,14.814814814814813,0)" xlink:href="#ac"/><use transform="matrix(0.07407407407407407,0,0,0.07407407407407407,31.037037037037035,0)" xlink:href="#aj"/><use transform="matrix(0.07407407407407407,0,0,0.07407407407407407,54.740740740740726,0)" xlink:href="#aj"/><use transform="matrix(0.07407407407407407,0,0,0.07407407407407407,78.44444444444443,0)" xlink:href="#ak"/><use transform="matrix(0.07407407407407407,0,0,0.07407407407407407,94.66666666666666,0)" xlink:href="#ad"/><use transform="matrix(0.07407407407407407,0,0,0.07407407407407407,110.88888888888889,0)" xlink:href="#al"/><use transform="matrix(0.07407407407407407,0,0,0.07407407407407407,118.29629629629629,0)" xlink:href="#ai"/><use transform="matrix(0.07407407407407407,0,0,0.07407407407407407,133.11111111111111,0)" xlink:href="#am"/><use transform="matrix(0.07407407407407407,0,0,0.07407407407407407,147.92592592592592,0)" xlink:href="#ae"/><use transform="matrix(0.07407407407407407,0,0,0.07407407407407407,156.74074074074073,0)" xlink:href="#ah"/><use transform="matrix(0.07407407407407407,0,0,0.07407407407407407,171.55555555555554,0)" xlink:href="#an"/></g><path fill="#fff" d="M231 0h-52l-39-155L100 0H48L-1-190h46L77-45c9-52 24-97 36-145h53l37 145 32-145h46" id="ao"/><path fill="#fff" d="M114-157C55-157 80-60 75 0H25v-261h50l-1 109c12-26 28-41 61-42 86-1 58 113 63 194h-50c-7-57 23-157-34-157" id="ap"/><g id="c"><use transform="matrix(0.07407407407407407,0,0,0.07407407407407407,0,0)" xlink:href="#ao"/><use transform="matrix(0.07407407407407407,0,0,0.07407407407407407,20.74074074074074,0)" xlink:href="#al"/><use transform="matrix(0.07407407407407407,0,0,0.07407407407407407,28.148148148148145,0)" xlink:href="#ae"/><use transform="matrix(0.07407407407407407,0,0,0.07407407407407407,36.96296296296296,0)" xlink:href="#ap"/></g><path fill="#fff" d="M230 0l2-204L168 0h-37L68-204 70 0H24v-248h70l56 185 57-185h69V0h-46" id="aq"/><path fill="#fff" d="M88-194c31-1 46 15 58 34l-1-101h50l1 261h-48c-2-10 0-23-3-31C134-8 116 4 84 4 32 4 16-41 15-95c0-56 19-97 73-99zm17 164c33 0 40-30 41-66 1-37-9-64-41-64s-38 30-39 65c0 43 13 65 39 65" id="ar"/><g id="d"><use transform="matrix(0.07407407407407407,0,0,0.07407407407407407,0,0)" xlink:href="#aq"/><use transform="matrix(0.07407407407407407,0,0,0.07407407407407407,22.148148148148145,0)" xlink:href="#ac"/><use transform="matrix(0.07407407407407407,0,0,0.07407407407407407,38.37037037037037,0)" xlink:href="#ar"/><use transform="matrix(0.07407407407407407,0,0,0.07407407407407407,54.59259259259259,0)" xlink:href="#ah"/><use transform="matrix(0.07407407407407407,0,0,0.07407407407407407,69.4074074074074,0)" xlink:href="#ag"/></g><g id="e"><use transform="matrix(0.07407407407407407,0,0,0.07407407407407407,0,0)" xlink:href="#am"/><use transform="matrix(0.07407407407407407,0,0,0.07407407407407407,14.814814814814813,0)" xlink:href="#ad"/><use transform="matrix(0.07407407407407407,0,0,0.07407407407407407,31.037037037037035,0)" xlink:href="#ar"/></g><g id="f"><use transform="matrix(0.07407407407407407,0,0,0.07407407407407407,0,0)" xlink:href="#ar"/><use transform="matrix(0.07407407407407407,0,0,0.07407407407407407,16.22222222222222,0)" xlink:href="#ah"/><use transform="matrix(0.07407407407407407,0,0,0.07407407407407407,31.037037037037035,0)" xlink:href="#ai"/><use transform="matrix(0.07407407407407407,0,0,0.07407407407407407,45.85185185185185,0)" xlink:href="#al"/><use transform="matrix(0.07407407407407407,0,0,0.07407407407407407,53.25925925925926,0)" xlink:href="#ar"/><use transform="matrix(0.07407407407407407,0,0,0.07407407407407407,69.48148148148147,0)" xlink:href="#ah"/><use transform="matrix(0.07407407407407407,0,0,0.07407407407407407,84.29629629629628,0)" xlink:href="#an"/></g><g id="g"><use transform="matrix(0.07407407407407407,0,0,0.07407407407407407,0,0)" xlink:href="#ao"/><use transform="matrix(0.07407407407407407,0,0,0.07407407407407407,20.74074074074074,0)" xlink:href="#ap"/><use transform="matrix(0.07407407407407407,0,0,0.07407407407407407,36.96296296296296,0)" xlink:href="#al"/><use transform="matrix(0.07407407407407407,0,0,0.07407407407407407,44.37037037037037,0)" xlink:href="#ai"/><use transform="matrix(0.07407407407407407,0,0,0.07407407407407407,59.185185185185176,0)" xlink:href="#ap"/></g><path fill="#fff" d="M128 0H69L1-190h53L99-40l48-150h52" id="as"/><g id="h"><use transform="matrix(0.07407407407407407,0,0,0.07407407407407407,0,0)" xlink:href="#as"/><use transform="matrix(0.07407407407407407,0,0,0.07407407407407407,14.814814814814813,0)" xlink:href="#al"/><use transform="matrix(0.07407407407407407,0,0,0.07407407407407407,22.22222222222222,0)" xlink:href="#ah"/><use transform="matrix(0.07407407407407407,0,0,0.07407407407407407,37.03703703703704,0)" xlink:href="#ao"/></g><g id="i"><use transform="matrix(0.07407407407407407,0,0,0.07407407407407407,0,0)" xlink:href="#an"/><use transform="matrix(0.07407407407407407,0,0,0.07407407407407407,14.814814814814813,0)" xlink:href="#ap"/><use transform="matrix(0.07407407407407407,0,0,0.07407407407407407,31.037037037037035,0)" xlink:href="#ac"/><use transform="matrix(0.07407407407407407,0,0,0.07407407407407407,47.259259259259245,0)" xlink:href="#ak"/><use transform="matrix(0.07407407407407407,0,0,0.07407407407407407,63.48148148148148,0)" xlink:href="#ag"/><use transform="matrix(0.07407407407407407,0,0,0.07407407407407407,70.88888888888889,0)" xlink:href="#ar"/></g><path fill="#fff" d="M135-194c52 0 70 43 70 98 0 56-19 99-73 100-30 1-46-15-58-35L72 0H24l1-261h50v104c11-23 29-37 60-37zM114-30c31 0 40-27 40-66 0-37-7-63-39-63s-41 28-41 65c0 36 8 64 40 64" id="at"/><g id="j"><use transform="matrix(0.07407407407407407,0,0,0.07407407407407407,0,0)" xlink:href="#at"/><use transform="matrix(0.07407407407407407,0,0,0.07407407407407407,16.22222222222222,0)" xlink:href="#ah"/></g><path fill="#fff" d="M195-6C206 82 75 100 31 46c-4-6-6-13-8-21l49-6c3 16 16 24 34 25 40 0 42-37 40-79-11 22-30 35-61 35-53 0-70-43-70-97 0-56 18-96 73-97 30 0 46 14 59 34l2-30h47zm-90-29c32 0 41-27 41-63 0-35-9-62-40-62-32 0-39 29-40 63 0 36 9 62 39 62" id="au"/><g id="k"><use transform="matrix(0.07407407407407407,0,0,0.07407407407407407,0,0)" xlink:href="#au"/><use transform="matrix(0.07407407407407407,0,0,0.07407407407407407,16.22222222222222,0)" xlink:href="#ah"/><use transform="matrix(0.07407407407407407,0,0,0.07407407407407407,31.037037037037035,0)" xlink:href="#ad"/><use transform="matrix(0.07407407407407407,0,0,0.07407407407407407,47.259259259259245,0)" xlink:href="#ah"/><use transform="matrix(0.07407407407407407,0,0,0.07407407407407407,62.07407407407406,0)" xlink:href="#af"/><use transform="matrix(0.07407407407407407,0,0,0.07407407407407407,72.44444444444443,0)" xlink:href="#am"/><use transform="matrix(0.07407407407407407,0,0,0.07407407407407407,87.25925925925924,0)" xlink:href="#ae"/><use transform="matrix(0.07407407407407407,0,0,0.07407407407407407,96.07407407407405,0)" xlink:href="#ah"/><use transform="matrix(0.07407407407407407,0,0,0.07407407407407407,110.88888888888884,0)" xlink:href="#ar"/></g><path fill="#fff" d="M24 0v-54h51V0H24" id="av"/><g id="l"><use transform="matrix(0.07407407407407407,0,0,0.07407407407407407,0,0)" xlink:href="#ah"/><use transform="matrix(0.07407407407407407,0,0,0.07407407407407407,14.814814814814813,0)" xlink:href="#au"/><use transform="matrix(0.07407407407407407,0,0,0.07407407407407407,31.037037037037035,0)" xlink:href="#av"/></g><path fill="#fff" d="M24 0v-248h195v40H76v63h132v40H76v65h150V0H24" id="aw"/><g id="m"><use transform="matrix(0.07407407407407407,0,0,0.07407407407407407,0,0)" xlink:href="#aw"/><use transform="matrix(0.07407407407407407,0,0,0.07407407407407407,17.77777777777778,0)" xlink:href="#ad"/><use transform="matrix(0.07407407407407407,0,0,0.07407407407407407,34,0)" xlink:href="#ae"/><use transform="matrix(0.07407407407407407,0,0,0.07407407407407407,42.814814814814824,0)" xlink:href="#af"/><use transform="matrix(0.07407407407407407,0,0,0.07407407407407407,53.18518518518519,0)" xlink:href="#al"/><use transform="matrix(0.07407407407407407,0,0,0.07407407407407407,60.592592592592595,0)" xlink:href="#ah"/><use transform="matrix(0.07407407407407407,0,0,0.07407407407407407,75.4074074074074,0)" xlink:href="#an"/><use transform="matrix(0.07407407407407407,0,0,0.07407407407407407,90.22222222222221,0)" xlink:href="#ab"/><use transform="matrix(0.07407407407407407,0,0,0.07407407407407407,109.40740740740739,0)" xlink:href="#ac"/><use transform="matrix(0.07407407407407407,0,0,0.07407407407407407,125.62962962962962,0)" xlink:href="#ad"/><use transform="matrix(0.07407407407407407,0,0,0.07407407407407407,141.85185185185185,0)" xlink:href="#ae"/><use transform="matrix(0.07407407407407407,0,0,0.07407407407407407,150.66666666666666,0)" xlink:href="#af"/><use transform="matrix(0.07407407407407407,0,0,0.07407407407407407,161.03703703703704,0)" xlink:href="#ac"/><use transform="matrix(0.07407407407407407,0,0,0.07407407407407407,177.2592592592593,0)" xlink:href="#ag"/><use transform="matrix(0.07407407407407407,0,0,0.07407407407407407,184.66666666666669,0)" xlink:href="#ag"/><use transform="matrix(0.07407407407407407,0,0,0.07407407407407407,192.0740740740741,0)" xlink:href="#ah"/><use transform="matrix(0.07407407407407407,0,0,0.07407407407407407,206.8888888888889,0)" xlink:href="#af"/></g><path fill="#fff" d="M240-174c0 40-23 61-54 70L253 0h-59l-57-94H76V0H24v-248c93 4 217-23 216 74zM76-134c48-2 112 12 112-38 0-48-66-32-112-35v73" id="ax"/><g id="n"><use transform="matrix(0.12345679012345677,0,0,0.12345679012345677,0,0)" xlink:href="#ax"/><use transform="matrix(0.12345679012345677,0,0,0.12345679012345677,31.975308641975303,0)" xlink:href="#ac"/><use transform="matrix(0.12345679012345677,0,0,0.12345679012345677,59.012345679012334,0)" xlink:href="#ak"/><use transform="matrix(0.12345679012345677,0,0,0.12345679012345677,86.04938271604937,0)" xlink:href="#ae"/><use transform="matrix(0.12345679012345677,0,0,0.12345679012345677,100.74074074074072,0)" xlink:href="#ah"/><use transform="matrix(0.12345679012345677,0,0,0.12345679012345677,125.43209876543207,0)" xlink:href="#af"/></g><path fill="#fff" d="M121-226c-27-7-43 5-38 36h38v33H83V0H34v-157H6v-33h28c-9-59 32-81 87-68v32" id="ay"/><g id="o"><use transform="matrix(0.07407407407407406,0,0,0.07407407407407406,0,0)" xlink:href="#ar"/><use transform="matrix(0.07407407407407406,0,0,0.07407407407407406,16.222222222222218,0)" xlink:href="#ah"/><use transform="matrix(0.07407407407407406,0,0,0.07407407407407406,31.03703703703703,0)" xlink:href="#ay"/><use transform="matrix(0.07407407407407406,0,0,0.07407407407407406,39.85185185185185,0)" xlink:href="#al"/><use transform="matrix(0.07407407407407406,0,0,0.07407407407407406,47.25925925925926,0)" xlink:href="#ad"/><use transform="matrix(0.07407407407407406,0,0,0.07407407407407406,63.48148148148147,0)" xlink:href="#ah"/><use transform="matrix(0.07407407407407406,0,0,0.07407407407407406,78.29629629629628,0)" xlink:href="#an"/></g><g id="p"><use transform="matrix(0.07407407407407406,0,0,0.07407407407407406,0,0)" xlink:href="#ao"/><use transform="matrix(0.07407407407407406,0,0,0.07407407407407406,20.740740740740737,0)" xlink:href="#ap"/><use transform="matrix(0.07407407407407406,0,0,0.07407407407407406,36.962962962962955,0)" xlink:href="#al"/><use transform="matrix(0.07407407407407406,0,0,0.07407407407407406,44.37037037037036,0)" xlink:href="#ai"/><use transform="matrix(0.07407407407407406,0,0,0.07407407407407406,59.18518518518517,0)" xlink:href="#ap"/></g><g id="q"><use transform="matrix(0.07407407407407406,0,0,0.07407407407407406,0,0)" xlink:href="#ai"/><use transform="matrix(0.07407407407407406,0,0,0.07407407407407406,14.814814814814811,0)" xlink:href="#ac"/><use transform="matrix(0.07407407407407406,0,0,0.07407407407407406,31.03703703703703,0)" xlink:href="#ad"/><use transform="matrix(0.07407407407407406,0,0,0.07407407407407406,47.25925925925926,0)" xlink:href="#ae"/><use transform="matrix(0.07407407407407406,0,0,0.07407407407407406,56.07407407407406,0)" xlink:href="#af"/><use transform="matrix(0.07407407407407406,0,0,0.07407407407407406,66.44444444444443,0)" xlink:href="#ac"/><use transform="matrix(0.07407407407407406,0,0,0.07407407407407406,82.66666666666664,0)" xlink:href="#ag"/><use transform="matrix(0.07407407407407406,0,0,0.07407407407407406,90.07407407407405,0)" xlink:href="#ag"/><use transform="matrix(0.07407407407407406,0,0,0.07407407407407406,97.48148148148145,0)" xlink:href="#ah"/><use transform="matrix(0.07407407407407406,0,0,0.07407407407407406,112.29629629629626,0)" xlink:href="#af"/></g><path fill="#fff" d="M67-93c0 74 22 123 53 168H70C40 30 18-18 18-93s22-123 52-168h50c-32 44-53 94-53 168" id="az"/><g id="r"><use transform="matrix(0.07407407407407406,0,0,0.07407407407407406,0,0)" xlink:href="#az"/><use transform="matrix(0.07407407407407406,0,0,0.07407407407407406,8.814814814814813,0)" xlink:href="#am"/><use transform="matrix(0.07407407407407406,0,0,0.07407407407407406,23.62962962962963,0)" xlink:href="#ad"/><use transform="matrix(0.07407407407407406,0,0,0.07407407407407406,39.85185185185185,0)" xlink:href="#ar"/></g><path fill="#fff" d="M102-93c0 74-22 123-52 168H0C30 29 54-18 53-93c0-74-22-123-53-168h50c30 45 52 94 52 168" id="aA"/><g id="s"><use transform="matrix(0.07407407407407406,0,0,0.07407407407407406,0,0)" xlink:href="#am"/><use transform="matrix(0.07407407407407406,0,0,0.07407407407407406,14.814814814814811,0)" xlink:href="#ai"/><use transform="matrix(0.07407407407407406,0,0,0.07407407407407406,29.629629629629623,0)" xlink:href="#ae"/><use transform="matrix(0.07407407407407406,0,0,0.07407407407407406,38.444444444444436,0)" xlink:href="#al"/><use transform="matrix(0.07407407407407406,0,0,0.07407407407407406,45.85185185185184,0)" xlink:href="#ac"/><use transform="matrix(0.07407407407407406,0,0,0.07407407407407406,62.07407407407406,0)" xlink:href="#ad"/><use transform="matrix(0.07407407407407406,0,0,0.07407407407407406,78.29629629629628,0)" xlink:href="#aA"/></g><g id="t"><use transform="matrix(0.07407407407407406,0,0,0.07407407407407406,0,0)" xlink:href="#an"/><use transform="matrix(0.07407407407407406,0,0,0.07407407407407406,14.814814814814811,0)" xlink:href="#ap"/><use transform="matrix(0.07407407407407406,0,0,0.07407407407407406,31.03703703703703,0)" xlink:href="#ac"/><use transform="matrix(0.07407407407407406,0,0,0.07407407407407406,47.25925925925926,0)" xlink:href="#ak"/><use transform="matrix(0.07407407407407406,0,0,0.07407407407407406,63.48148148148147,0)" xlink:href="#ag"/><use transform="matrix(0.07407407407407406,0,0,0.07407407407407406,70.88888888888887,0)" xlink:href="#ar"/></g><path fill="#fff" d="M135-194c53 0 70 44 70 98 0 56-19 98-73 100-31 1-45-17-59-34 3 33 2 69 2 105H25l-1-265h48c2 10 0 23 3 31 11-24 29-35 60-35zM114-30c33 0 39-31 40-66 0-38-9-64-40-64-56 0-55 130 0 130" id="aB"/><g id="u"><use transform="matrix(0.07407407407407406,0,0,0.07407407407407406,0,0)" xlink:href="#aB"/><use transform="matrix(0.07407407407407406,0,0,0.07407407407407406,16.222222222222218,0)" xlink:href="#af"/><use transform="matrix(0.07407407407407406,0,0,0.07407407407407406,26.592592592592585,0)" xlink:href="#ac"/><use transform="matrix(0.07407407407407406,0,0,0.07407407407407406,42.81481481481481,0)" xlink:href="#ai"/><use transform="matrix(0.07407407407407406,0,0,0.07407407407407406,57.62962962962962,0)" xlink:href="#ah"/><use transform="matrix(0.07407407407407406,0,0,0.07407407407407406,72.44444444444443,0)" xlink:href="#an"/><use transform="matrix(0.07407407407407406,0,0,0.07407407407407406,87.25925925925924,0)" xlink:href="#an"/></g><g id="v"><use transform="matrix(0.07407407407407406,0,0,0.07407407407407406,0,0)" xlink:href="#ae"/><use transform="matrix(0.07407407407407406,0,0,0.07407407407407406,8.814814814814813,0)" xlink:href="#ap"/><use transform="matrix(0.07407407407407406,0,0,0.07407407407407406,25.03703703703703,0)" xlink:href="#ah"/></g><path fill="#fff" d="M84 4C32 4 15-41 15-95c0-55 18-99 73-99 29 0 47 12 58 34l2-30h48l-1 265h-49V-32C136-9 114 4 84 4zm21-34c32 0 41-29 41-66 0-36-9-64-40-64-33 0-39 30-40 65 0 43 13 65 39 65" id="aC"/><g id="w"><use transform="matrix(0.07407407407407406,0,0,0.07407407407407406,0,0)" xlink:href="#af"/><use transform="matrix(0.07407407407407406,0,0,0.07407407407407406,10.370370370370368,0)" xlink:href="#ah"/><use transform="matrix(0.07407407407407406,0,0,0.07407407407407406,25.18518518518518,0)" xlink:href="#aC"/><use transform="matrix(0.07407407407407406,0,0,0.07407407407407406,41.4074074074074,0)" xlink:href="#ak"/><use transform="matrix(0.07407407407407406,0,0,0.07407407407407406,57.62962962962962,0)" xlink:href="#ah"/><use transform="matrix(0.07407407407407406,0,0,0.07407407407407406,72.44444444444443,0)" xlink:href="#an"/><use transform="matrix(0.07407407407407406,0,0,0.07407407407407406,87.25925925925924,0)" xlink:href="#ae"/></g><path fill="#fff" d="M4 7l51-268h42L46 7H4" id="aD"/><g id="x"><use transform="matrix(0.07407407407407406,0,0,0.07407407407407406,0,0)" xlink:href="#ai"/><use transform="matrix(0.07407407407407406,0,0,0.07407407407407406,14.814814814814811,0)" xlink:href="#ac"/><use transform="matrix(0.07407407407407406,0,0,0.07407407407407406,31.03703703703703,0)" xlink:href="#ad"/><use transform="matrix(0.07407407407407406,0,0,0.07407407407407406,47.25925925925926,0)" xlink:href="#ay"/><use transform="matrix(0.07407407407407406,0,0,0.07407407407407406,56.07407407407406,0)" xlink:href="#al"/><use transform="matrix(0.07407407407407406,0,0,0.07407407407407406,63.48148148148147,0)" xlink:href="#au"/><use transform="matrix(0.07407407407407406,0,0,0.07407407407407406,79.70370370370368,0)" xlink:href="#aD"/><use transform="matrix(0.07407407407407406,0,0,0.07407407407407406,87.11111111111109,0)" xlink:href="#af"/><use transform="matrix(0.07407407407407406,0,0,0.07407407407407406,97.48148148148145,0)" xlink:href="#ac"/><use transform="matrix(0.07407407407407406,0,0,0.07407407407407406,113.70370370370365,0)" xlink:href="#ak"/><use transform="matrix(0.07407407407407406,0,0,0.07407407407407406,129.9259259259259,0)" xlink:href="#ae"/><use transform="matrix(0.07407407407407406,0,0,0.07407407407407406,138.7407407407407,0)" xlink:href="#ah"/><use transform="matrix(0.07407407407407406,0,0,0.07407407407407406,153.55555555555551,0)" xlink:href="#an"/><use transform="matrix(0.07407407407407406,0,0,0.07407407407407406,168.37037037037032,0)" xlink:href="#av"/><use transform="matrix(0.07407407407407406,0,0,0.07407407407407406,175.77777777777774,0)" xlink:href="#af"/><use transform="matrix(0.07407407407407406,0,0,0.07407407407407406,186.14814814814812,0)" xlink:href="#at"/></g><path fill="#fff" d="M147 0H94L2-248h55l64 206c17-72 42-137 63-206h54" id="aE"/><g id="y"><use transform="matrix(0.12345679012345677,0,0,0.12345679012345677,0,0)" xlink:href="#aE"/><use transform="matrix(0.12345679012345677,0,0,0.12345679012345677,28.76543209876543,0)" xlink:href="#al"/><use transform="matrix(0.12345679012345677,0,0,0.12345679012345677,41.11111111111111,0)" xlink:href="#ah"/><use transform="matrix(0.12345679012345677,0,0,0.12345679012345677,65.80246913580245,0)" xlink:href="#ao"/><use transform="matrix(0.12345679012345677,0,0,0.12345679012345677,100.37037037037035,0)" xlink:href="#an"/></g><g id="z"><use transform="matrix(0.07407407407407406,0,0,0.07407407407407406,0,0)" xlink:href="#ap"/><use transform="matrix(0.07407407407407406,0,0,0.07407407407407406,16.222222222222218,0)" xlink:href="#ae"/><use transform="matrix(0.07407407407407406,0,0,0.07407407407407406,25.03703703703703,0)" xlink:href="#aj"/><use transform="matrix(0.07407407407407406,0,0,0.07407407407407406,48.74074074074074,0)" xlink:href="#ag"/></g><g id="A"><use transform="matrix(0.07407407407407406,0,0,0.07407407407407406,0,0)" xlink:href="#ar"/><use transform="matrix(0.07407407407407406,0,0,0.07407407407407406,16.222222222222218,0)" xlink:href="#ac"/><use transform="matrix(0.07407407407407406,0,0,0.07407407407407406,32.444444444444436,0)" xlink:href="#ai"/><use transform="matrix(0.07407407407407406,0,0,0.07407407407407406,47.259259259259245,0)" xlink:href="#ak"/><use transform="matrix(0.07407407407407406,0,0,0.07407407407407406,63.48148148148147,0)" xlink:href="#aj"/><use transform="matrix(0.07407407407407406,0,0,0.07407407407407406,87.18518518518516,0)" xlink:href="#ah"/><use transform="matrix(0.07407407407407406,0,0,0.07407407407407406,101.99999999999997,0)" xlink:href="#ad"/><use transform="matrix(0.07407407407407406,0,0,0.07407407407407406,118.2222222222222,0)" xlink:href="#ae"/></g><g id="B"><use transform="matrix(0.07407407407407406,0,0,0.07407407407407406,0,0)" xlink:href="#ao"/><use transform="matrix(0.07407407407407406,0,0,0.07407407407407406,20.740740740740737,0)" xlink:href="#al"/><use transform="matrix(0.07407407407407406,0,0,0.07407407407407406,28.14814814814814,0)" xlink:href="#ae"/><use transform="matrix(0.07407407407407406,0,0,0.07407407407407406,36.962962962962955,0)" xlink:href="#ap"/></g><path fill="#fff" d="M123 10C108 53 80 86 19 72V37c35 8 53-11 59-39L3-190h52l48 148c12-52 28-100 44-148h51" id="aF"/><g id="C"><use transform="matrix(0.07407407407407406,0,0,0.07407407407407406,0,0)" xlink:href="#ax"/><use transform="matrix(0.07407407407407406,0,0,0.07407407407407406,19.18518518518518,0)" xlink:href="#ak"/><use transform="matrix(0.07407407407407406,0,0,0.07407407407407406,35.4074074074074,0)" xlink:href="#at"/><use transform="matrix(0.07407407407407406,0,0,0.07407407407407406,51.62962962962962,0)" xlink:href="#aF"/></g><g id="D"><use transform="matrix(0.07407407407407406,0,0,0.07407407407407406,0,0)" xlink:href="#ai"/><use transform="matrix(0.07407407407407406,0,0,0.07407407407407406,14.814814814814811,0)" xlink:href="#ac"/><use transform="matrix(0.07407407407407406,0,0,0.07407407407407406,31.03703703703703,0)" xlink:href="#ar"/><use transform="matrix(0.07407407407407406,0,0,0.07407407407407406,47.25925925925926,0)" xlink:href="#ah"/></g><g id="E"><use transform="matrix(0.07407407407407406,0,0,0.07407407407407406,0,0)" xlink:href="#ah"/><use transform="matrix(0.07407407407407406,0,0,0.07407407407407406,14.814814814814811,0)" xlink:href="#au"/><use transform="matrix(0.07407407407407406,0,0,0.07407407407407406,31.03703703703703,0)" xlink:href="#av"/></g><path fill="#fff" d="M144 0l-44-69L55 0H2l70-98-66-92h53l41 62 40-62h54l-67 91 71 99h-54" id="aG"/><g id="F"><use transform="matrix(0.07407407407407406,0,0,0.07407407407407406,0,0)" xlink:href="#al"/><use transform="matrix(0.07407407407407406,0,0,0.07407407407407406,7.407407407407406,0)" xlink:href="#ad"/><use transform="matrix(0.07407407407407406,0,0,0.07407407407407406,23.629629629629623,0)" xlink:href="#ar"/><use transform="matrix(0.07407407407407406,0,0,0.07407407407407406,39.85185185185184,0)" xlink:href="#ah"/><use transform="matrix(0.07407407407407406,0,0,0.07407407407407406,54.66666666666665,0)" xlink:href="#aG"/><use transform="matrix(0.07407407407407406,0,0,0.07407407407407406,69.48148148148147,0)" xlink:href="#av"/><use transform="matrix(0.07407407407407406,0,0,0.07407407407407406,76.88888888888887,0)" xlink:href="#ap"/><use transform="matrix(0.07407407407407406,0,0,0.07407407407407406,93.11111111111109,0)" xlink:href="#ae"/><use transform="matrix(0.07407407407407406,0,0,0.07407407407407406,101.9259259259259,0)" xlink:href="#aj"/><use transform="matrix(0.07407407407407406,0,0,0.07407407407407406,125.62962962962958,0)" xlink:href="#ag"/></g><g id="G"><use transform="matrix(0.12345679012345677,0,0,0.12345679012345677,0,0)" xlink:href="#aq"/><use transform="matrix(0.12345679012345677,0,0,0.12345679012345677,36.913580246913575,0)" xlink:href="#ac"/><use transform="matrix(0.12345679012345677,0,0,0.12345679012345677,63.950617283950606,0)" xlink:href="#ar"/><use transform="matrix(0.12345679012345677,0,0,0.12345679012345677,90.98765432098764,0)" xlink:href="#ah"/><use transform="matrix(0.12345679012345677,0,0,0.12345679012345677,115.679012345679,0)" xlink:href="#ag"/></g><g id="H"><use transform="matrix(0.07407407407407407,0,0,0.07407407407407407,0,0)" xlink:href="#ai"/><use transform="matrix(0.07407407407407407,0,0,0.07407407407407407,14.814814814814813,0)" xlink:href="#ac"/><use transform="matrix(0.07407407407407407,0,0,0.07407407407407407,31.037037037037035,0)" xlink:href="#aj"/><use transform="matrix(0.07407407407407407,0,0,0.07407407407407407,54.740740740740726,0)" xlink:href="#aj"/><use transform="matrix(0.07407407407407407,0,0,0.07407407407407407,78.44444444444443,0)" xlink:href="#ak"/><use transform="matrix(0.07407407407407407,0,0,0.07407407407407407,94.66666666666666,0)" xlink:href="#ad"/><use transform="matrix(0.07407407407407407,0,0,0.07407407407407407,110.88888888888889,0)" xlink:href="#al"/><use transform="matrix(0.07407407407407407,0,0,0.07407407407407407,118.29629629629629,0)" xlink:href="#ai"/><use transform="matrix(0.07407407407407407,0,0,0.07407407407407407,133.11111111111111,0)" xlink:href="#am"/><use transform="matrix(0.07407407407407407,0,0,0.07407407407407407,147.92592592592592,0)" xlink:href="#ae"/><use transform="matrix(0.07407407407407407,0,0,0.07407407407407407,156.74074074074073,0)" xlink:href="#ah"/><use transform="matrix(0.07407407407407407,0,0,0.07407407407407407,171.55555555555554,0)" xlink:href="#an"/></g><g id="I"><use transform="matrix(0.07407407407407407,0,0,0.07407407407407407,0,0)" xlink:href="#ao"/><use transform="matrix(0.07407407407407407,0,0,0.07407407407407407,20.74074074074074,0)" xlink:href="#al"/><use transform="matrix(0.07407407407407407,0,0,0.07407407407407407,28.148148148148145,0)" xlink:href="#ae"/><use transform="matrix(0.07407407407407407,0,0,0.07407407407407407,36.96296296296296,0)" xlink:href="#ap"/></g><g id="J"><use transform="matrix(0.07407407407407407,0,0,0.07407407407407407,0,0)" xlink:href="#ar"/><use transform="matrix(0.07407407407407407,0,0,0.07407407407407407,16.22222222222222,0)" xlink:href="#am"/><use transform="matrix(0.07407407407407407,0,0,0.07407407407407407,31.037037037037035,0)" xlink:href="#ae"/><use transform="matrix(0.07407407407407407,0,0,0.07407407407407407,39.85185185185185,0)" xlink:href="#am"/><use transform="matrix(0.07407407407407407,0,0,0.07407407407407407,54.66666666666666,0)" xlink:href="#at"/><use transform="matrix(0.07407407407407407,0,0,0.07407407407407407,70.88888888888889,0)" xlink:href="#am"/><use transform="matrix(0.07407407407407407,0,0,0.07407407407407407,85.7037037037037,0)" xlink:href="#an"/><use transform="matrix(0.07407407407407407,0,0,0.07407407407407407,100.51851851851852,0)" xlink:href="#ah"/></g><g id="K"><use transform="matrix(0.07407407407407407,0,0,0.07407407407407407,0,0)" xlink:href="#aw"/><use transform="matrix(0.07407407407407407,0,0,0.07407407407407407,17.77777777777778,0)" xlink:href="#ad"/><use transform="matrix(0.07407407407407407,0,0,0.07407407407407407,34,0)" xlink:href="#ae"/><use transform="matrix(0.07407407407407407,0,0,0.07407407407407407,42.814814814814824,0)" xlink:href="#af"/><use transform="matrix(0.07407407407407407,0,0,0.07407407407407407,53.18518518518519,0)" xlink:href="#aF"/><use transform="matrix(0.07407407407407407,0,0,0.07407407407407407,66,0)" xlink:href="#av"/><use transform="matrix(0.07407407407407407,0,0,0.07407407407407407,73.4074074074074,0)" xlink:href="#af"/><use transform="matrix(0.07407407407407407,0,0,0.07407407407407407,83.77777777777777,0)" xlink:href="#at"/></g><path fill="#fff" d="M24-248c120-7 223 5 221 122C244-46 201 0 124 0H24v-248zM76-40c74 7 117-18 117-86 0-67-45-88-117-82v168" id="aH"/><g id="L"><use transform="matrix(0.0987654320987654,0,0,0.0987654320987654,0,0)" xlink:href="#aH"/><use transform="matrix(0.0987654320987654,0,0,0.0987654320987654,25.58024691358024,0)" xlink:href="#am"/><use transform="matrix(0.0987654320987654,0,0,0.0987654320987654,45.333333333333314,0)" xlink:href="#ae"/><use transform="matrix(0.0987654320987654,0,0,0.0987654320987654,57.0864197530864,0)" xlink:href="#am"/><use transform="matrix(0.0987654320987654,0,0,0.0987654320987654,76.83950617283948,0)" xlink:href="#at"/><use transform="matrix(0.0987654320987654,0,0,0.0987654320987654,98.4691358024691,0)" xlink:href="#am"/><use transform="matrix(0.0987654320987654,0,0,0.0987654320987654,118.22222222222219,0)" xlink:href="#an"/><use transform="matrix(0.0987654320987654,0,0,0.0987654320987654,137.97530864197526,0)" xlink:href="#ah"/></g><path fill="#3a414a" d="M182-130c37 4 62 22 62 59C244 23 116-4 24 0v-248c84 5 203-23 205 63 0 31-19 50-47 55zM76-148c40-3 101 13 101-30 0-44-60-28-101-31v61zm0 110c48-3 116 14 116-37 0-48-69-32-116-35v72" id="aI"/><path fill="#3a414a" d="M240-174c0 40-23 61-54 70L253 0h-59l-57-94H76V0H24v-248c93 4 217-23 216 74zM76-134c48-2 112 12 112-38 0-48-66-32-112-35v73" id="aJ"/><path fill="#3a414a" d="M140-251c80 0 125 45 125 126S219 4 139 4C58 4 15-44 15-125s44-126 125-126zm-1 214c52 0 73-35 73-88 0-50-21-86-72-86-52 0-73 35-73 86s22 88 72 88" id="aK"/><path fill="#3a414a" d="M275 0h-61l-44-196L126 0H64L0-248h53L97-49l45-199h58l43 199 44-199h52" id="aL"/><path fill="#3a414a" d="M169-182c-1-43-94-46-97-3 18 66 151 10 154 114 3 95-165 93-204 36-6-8-10-19-12-30l50-8c3 46 112 56 116 5-17-69-150-10-154-114-4-87 153-88 188-35 5 8 8 18 10 28" id="aM"/><path fill="#3a414a" d="M24 0v-248h195v40H76v63h132v40H76v65h150V0H24" id="aN"/><g id="M"><use transform="matrix(0.06790123456790122,0,0,0.06790123456790122,0,0)" xlink:href="#aI"/><use transform="matrix(0.06790123456790122,0,0,0.06790123456790122,17.586419753086414,0)" xlink:href="#aJ"/><use transform="matrix(0.06790123456790122,0,0,0.06790123456790122,35.17283950617283,0)" xlink:href="#aK"/><use transform="matrix(0.06790123456790122,0,0,0.06790123456790122,54.18518518518517,0)" xlink:href="#aL"/><use transform="matrix(0.06790123456790122,0,0,0.06790123456790122,77.20370370370368,0)" xlink:href="#aM"/><use transform="matrix(0.06790123456790122,0,0,0.06790123456790122,93.49999999999997,0)" xlink:href="#aN"/><use transform="matrix(0.06790123456790122,0,0,0.06790123456790122,109.79629629629626,0)" xlink:href="#aJ"/></g><path fill="#3a414a" d="M85 4C-2 5 27-109 22-190h50c7 57-23 150 33 157 60-5 35-97 40-157h50l1 190h-47c-2-12 1-28-3-38-12 25-28 42-61 42" id="aO"/><path fill="#3a414a" d="M137-138c1-29-70-34-71-4 15 46 118 7 119 86 1 83-164 76-172 9l43-7c4 19 20 25 44 25 33 8 57-30 24-41C81-84 22-81 20-136c-2-80 154-74 161-7" id="aP"/><path fill="#3a414a" d="M185-48c-13 30-37 53-82 52C43 2 14-33 14-96s30-98 90-98c62 0 83 45 84 108H66c0 31 8 55 39 56 18 0 30-7 34-22zm-45-69c5-46-57-63-70-21-2 6-4 13-4 21h74" id="aQ"/><path fill="#3a414a" d="M135-150c-39-12-60 13-60 57V0H25l-1-190h47c2 13-1 29 3 40 6-28 27-53 61-41v41" id="aR"/><g id="N"><use transform="matrix(0.06790123456790122,0,0,0.06790123456790122,0,0)" xlink:href="#aO"/><use transform="matrix(0.06790123456790122,0,0,0.06790123456790122,14.870370370370367,0)" xlink:href="#aP"/><use transform="matrix(0.06790123456790122,0,0,0.06790123456790122,28.45061728395061,0)" xlink:href="#aQ"/><use transform="matrix(0.06790123456790122,0,0,0.06790123456790122,42.03086419753085,0)" xlink:href="#aR"/></g><path fill="#3a414a" d="M25-224v-37h50v37H25zM25 0v-190h50V0H25" id="aS"/><path fill="#3a414a" d="M135-194c87-1 58 113 63 194h-50c-7-57 23-157-34-157-59 0-34 97-39 157H25l-1-190h47c2 12-1 28 3 38 12-26 28-41 61-42" id="aT"/><path fill="#3a414a" d="M115-3C79 11 28 4 28-45v-112H4v-33h27l15-45h31v45h36v33H77v99c-1 23 16 31 38 25v30" id="aU"/><path fill="#3a414a" d="M133-34C117-15 103 5 69 4 32 3 11-16 11-54c-1-60 55-63 116-61 1-26-3-47-28-47-18 1-26 9-28 27l-52-2c7-38 36-58 82-57s74 22 75 68l1 82c-1 14 12 18 25 15v27c-30 8-71 5-69-32zm-48 3c29 0 43-24 42-57-32 0-66-3-65 30 0 17 8 27 23 27" id="aV"/><path fill="#3a414a" d="M190-63c-7 42-38 67-86 67-59 0-84-38-90-98-12-110 154-137 174-36l-49 2c-2-19-15-32-35-32-30 0-35 28-38 64-6 74 65 87 74 30" id="aW"/><g id="O"><use transform="matrix(0.06790123456790122,0,0,0.06790123456790122,0,0)" xlink:href="#aS"/><use transform="matrix(0.06790123456790122,0,0,0.06790123456790122,6.790123456790122,0)" xlink:href="#aT"/><use transform="matrix(0.06790123456790122,0,0,0.06790123456790122,21.660493827160487,0)" xlink:href="#aU"/><use transform="matrix(0.06790123456790122,0,0,0.06790123456790122,29.740740740740733,0)" xlink:href="#aQ"/><use transform="matrix(0.06790123456790122,0,0,0.06790123456790122,43.32098765432097,0)" xlink:href="#aR"/><use transform="matrix(0.06790123456790122,0,0,0.06790123456790122,52.827160493827144,0)" xlink:href="#aV"/><use transform="matrix(0.06790123456790122,0,0,0.06790123456790122,66.40740740740739,0)" xlink:href="#aW"/><use transform="matrix(0.06790123456790122,0,0,0.06790123456790122,79.98765432098763,0)" xlink:href="#aU"/><use transform="matrix(0.06790123456790122,0,0,0.06790123456790122,88.06790123456787,0)" xlink:href="#aP"/></g><path fill="#3a414a" d="M231 0h-52l-39-155L100 0H48L-1-190h46L77-45c9-52 24-97 36-145h53l37 145 32-145h46" id="aX"/><path fill="#3a414a" d="M114-157C55-157 80-60 75 0H25v-261h50l-1 109c12-26 28-41 61-42 86-1 58 113 63 194h-50c-7-57 23-157-34-157" id="aY"/><g id="P"><use transform="matrix(0.06790123456790122,0,0,0.06790123456790122,0,0)" xlink:href="#aX"/><use transform="matrix(0.06790123456790122,0,0,0.06790123456790122,19.01234567901234,0)" xlink:href="#aS"/><use transform="matrix(0.06790123456790122,0,0,0.06790123456790122,25.80246913580246,0)" xlink:href="#aU"/><use transform="matrix(0.06790123456790122,0,0,0.06790123456790122,33.88271604938271,0)" xlink:href="#aY"/></g><g id="Q"><use transform="matrix(0.06790123456790122,0,0,0.06790123456790122,0,0)" xlink:href="#aU"/><use transform="matrix(0.06790123456790122,0,0,0.06790123456790122,8.080246913580245,0)" xlink:href="#aY"/><use transform="matrix(0.06790123456790122,0,0,0.06790123456790122,22.950617283950614,0)" xlink:href="#aQ"/></g><path fill="#3a414a" d="M135-194c53 0 70 44 70 98 0 56-19 98-73 100-31 1-45-17-59-34 3 33 2 69 2 105H25l-1-265h48c2 10 0 23 3 31 11-24 29-35 60-35zM114-30c33 0 39-31 40-66 0-38-9-64-40-64-56 0-55 130 0 130" id="aZ"/><path fill="#3a414a" d="M76-54c-1 42 2 86-19 110H24C36 42 46 24 48 0H25v-54h51" id="ba"/><g id="R"><use transform="matrix(0.06790123456790122,0,0,0.06790123456790122,0,0)" xlink:href="#aV"/><use transform="matrix(0.06790123456790122,0,0,0.06790123456790122,13.580246913580243,0)" xlink:href="#aZ"/><use transform="matrix(0.06790123456790122,0,0,0.06790123456790122,28.45061728395061,0)" xlink:href="#aZ"/><use transform="matrix(0.06790123456790122,0,0,0.06790123456790122,43.32098765432097,0)" xlink:href="#ba"/></g><path fill="#3a414a" d="M195-6C206 82 75 100 31 46c-4-6-6-13-8-21l49-6c3 16 16 24 34 25 40 0 42-37 40-79-11 22-30 35-61 35-53 0-70-43-70-97 0-56 18-96 73-97 30 0 46 14 59 34l2-30h47zm-90-29c32 0 41-27 41-63 0-35-9-62-40-62-32 0-39 29-40 63 0 36 9 62 39 62" id="bb"/><path fill="#3a414a" d="M24 0v-54h51V0H24" id="bc"/><g id="S"><use transform="matrix(0.06790123456790122,0,0,0.06790123456790122,0,0)" xlink:href="#aQ"/><use transform="matrix(0.06790123456790122,0,0,0.06790123456790122,13.580246913580243,0)" xlink:href="#bb"/><use transform="matrix(0.06790123456790122,0,0,0.06790123456790122,28.45061728395061,0)" xlink:href="#bc"/></g><path fill="#3a414a" d="M123 10C108 53 80 86 19 72V37c35 8 53-11 59-39L3-190h52l48 148c12-52 28-100 44-148h51" id="bd"/><g id="T"><use transform="matrix(0.06790123456790122,0,0,0.06790123456790122,0,0)" xlink:href="#aU"/><use transform="matrix(0.06790123456790122,0,0,0.06790123456790122,8.080246913580245,0)" xlink:href="#bd"/><use transform="matrix(0.06790123456790122,0,0,0.06790123456790122,21.660493827160487,0)" xlink:href="#aZ"/><use transform="matrix(0.06790123456790122,0,0,0.06790123456790122,36.53086419753085,0)" xlink:href="#aQ"/><use transform="matrix(0.06790123456790122,0,0,0.06790123456790122,50.1111111111111,0)" xlink:href="#aP"/></g><path fill="#3a414a" d="M220-157c-53 9-28 100-34 157h-49v-107c1-27-5-49-29-50C55-147 81-57 75 0H25l-1-190h47c2 12-1 28 3 38 10-53 101-56 108 0 13-22 24-43 59-42 82 1 51 116 57 194h-49v-107c-1-25-5-48-29-50" id="be"/><path fill="#3a414a" d="M4 7l51-268h42L46 7H4" id="bf"/><g id="U"><use transform="matrix(0.06790123456790122,0,0,0.06790123456790122,0,0)" xlink:href="#be"/><use transform="matrix(0.06790123456790122,0,0,0.06790123456790122,21.72839506172839,0)" xlink:href="#bd"/><use transform="matrix(0.06790123456790122,0,0,0.06790123456790122,35.30864197530863,0)" xlink:href="#aV"/><use transform="matrix(0.06790123456790122,0,0,0.06790123456790122,48.88888888888887,0)" xlink:href="#aZ"/><use transform="matrix(0.06790123456790122,0,0,0.06790123456790122,63.75925925925924,0)" xlink:href="#aZ"/><use transform="matrix(0.06790123456790122,0,0,0.06790123456790122,78.6296296296296,0)" xlink:href="#bf"/><use transform="matrix(0.06790123456790122,0,0,0.06790123456790122,85.41975308641973,0)" xlink:href="#aQ"/><use transform="matrix(0.06790123456790122,0,0,0.06790123456790122,98.99999999999997,0)" xlink:href="#aT"/><use transform="matrix(0.06790123456790122,0,0,0.06790123456790122,113.87037037037034,0)" xlink:href="#aU"/><use transform="matrix(0.06790123456790122,0,0,0.06790123456790122,121.95061728395059,0)" xlink:href="#aR"/><use transform="matrix(0.06790123456790122,0,0,0.06790123456790122,131.45679012345676,0)" xlink:href="#aS"/><use transform="matrix(0.06790123456790122,0,0,0.06790123456790122,138.24691358024688,0)" xlink:href="#aQ"/><use transform="matrix(0.06790123456790122,0,0,0.06790123456790122,151.82716049382717,0)" xlink:href="#aP"/></g><g id="V"><use transform="matrix(0.06790123456790122,0,0,0.06790123456790122,0,0)" xlink:href="#bb"/><use transform="matrix(0.06790123456790122,0,0,0.06790123456790122,14.870370370370367,0)" xlink:href="#aQ"/><use transform="matrix(0.06790123456790122,0,0,0.06790123456790122,28.45061728395061,0)" xlink:href="#aU"/><use transform="matrix(0.06790123456790122,0,0,0.06790123456790122,36.53086419753085,0)" xlink:href="#aP"/></g><path fill="#3a414a" d="M110-194c64 0 96 36 96 99 0 64-35 99-97 99-61 0-95-36-95-99 0-62 34-99 96-99zm-1 164c35 0 45-28 45-65 0-40-10-65-43-65-34 0-45 26-45 65 0 36 10 65 43 65" id="bg"/><g id="W"><use transform="matrix(0.06790123456790122,0,0,0.06790123456790122,0,0)" xlink:href="#aR"/><use transform="matrix(0.06790123456790122,0,0,0.06790123456790122,9.50617283950617,0)" xlink:href="#aQ"/><use transform="matrix(0.06790123456790122,0,0,0.06790123456790122,23.086419753086414,0)" xlink:href="#aP"/><use transform="matrix(0.06790123456790122,0,0,0.06790123456790122,36.66666666666666,0)" xlink:href="#aZ"/><use transform="matrix(0.06790123456790122,0,0,0.06790123456790122,51.537037037037024,0)" xlink:href="#bg"/><use transform="matrix(0.06790123456790122,0,0,0.06790123456790122,66.40740740740739,0)" xlink:href="#aT"/><use transform="matrix(0.06790123456790122,0,0,0.06790123456790122,81.27777777777776,0)" xlink:href="#aP"/><use transform="matrix(0.06790123456790122,0,0,0.06790123456790122,94.858024691358,0)" xlink:href="#aQ"/></g><path fill="#3a414a" d="M67-93c0 74 22 123 53 168H70C40 30 18-18 18-93s22-123 52-168h50c-32 44-53 94-53 168" id="bh"/><path fill="#3a414a" d="M25 0v-261h50V0H25" id="bi"/><g id="X"><use transform="matrix(0.06790123456790122,0,0,0.06790123456790122,0,0)" xlink:href="#bh"/><use transform="matrix(0.06790123456790122,0,0,0.06790123456790122,8.080246913580245,0)" xlink:href="#aY"/><use transform="matrix(0.06790123456790122,0,0,0.06790123456790122,22.950617283950614,0)" xlink:href="#aU"/><use transform="matrix(0.06790123456790122,0,0,0.06790123456790122,31.03086419753086,0)" xlink:href="#be"/><use transform="matrix(0.06790123456790122,0,0,0.06790123456790122,52.75925925925925,0)" xlink:href="#bi"/></g><path fill="#3a414a" d="M88-194c31-1 46 15 58 34l-1-101h50l1 261h-48c-2-10 0-23-3-31C134-8 116 4 84 4 32 4 16-41 15-95c0-56 19-97 73-99zm17 164c33 0 40-30 41-66 1-37-9-64-41-64s-38 30-39 65c0 43 13 65 39 65" id="bj"/><path fill="#3a414a" d="M102-93c0 74-22 123-52 168H0C30 29 54-18 53-93c0-74-22-123-53-168h50c30 45 52 94 52 168" id="bk"/><g id="Y"><use transform="matrix(0.06790123456790122,0,0,0.06790123456790122,0,0)" xlink:href="#bj"/><use transform="matrix(0.06790123456790122,0,0,0.06790123456790122,14.870370370370367,0)" xlink:href="#bg"/><use transform="matrix(0.06790123456790122,0,0,0.06790123456790122,29.740740740740733,0)" xlink:href="#aW"/><use transform="matrix(0.06790123456790122,0,0,0.06790123456790122,43.32098765432097,0)" xlink:href="#bk"/></g><path fill="#3a414a" d="M84 4C32 4 15-41 15-95c0-55 18-99 73-99 29 0 47 12 58 34l2-30h48l-1 265h-49V-32C136-9 114 4 84 4zm21-34c32 0 41-29 41-66 0-36-9-64-40-64-33 0-39 30-40 65 0 43 13 65 39 65" id="bl"/><g id="Z"><use transform="matrix(0.06790123456790123,0,0,0.06790123456790123,0,0)" xlink:href="#aR"/><use transform="matrix(0.06790123456790123,0,0,0.06790123456790123,9.506172839506172,0)" xlink:href="#aQ"/><use transform="matrix(0.06790123456790123,0,0,0.06790123456790123,23.086419753086417,0)" xlink:href="#bl"/><use transform="matrix(0.06790123456790123,0,0,0.06790123456790123,37.95679012345679,0)" xlink:href="#aO"/><use transform="matrix(0.06790123456790123,0,0,0.06790123456790123,52.82716049382715,0)" xlink:href="#aQ"/><use transform="matrix(0.06790123456790123,0,0,0.06790123456790123,66.40740740740739,0)" xlink:href="#aP"/><use transform="matrix(0.06790123456790123,0,0,0.06790123456790123,79.98765432098764,0)" xlink:href="#aU"/></g><g id="aa"><use transform="matrix(0.06790123456790123,0,0,0.06790123456790123,0,0)" xlink:href="#aR"/><use transform="matrix(0.06790123456790123,0,0,0.06790123456790123,9.506172839506172,0)" xlink:href="#aQ"/><use transform="matrix(0.06790123456790123,0,0,0.06790123456790123,23.086419753086417,0)" xlink:href="#aP"/><use transform="matrix(0.06790123456790123,0,0,0.06790123456790123,36.666666666666664,0)" xlink:href="#aZ"/><use transform="matrix(0.06790123456790123,0,0,0.06790123456790123,51.537037037037045,0)" xlink:href="#bg"/><use transform="matrix(0.06790123456790123,0,0,0.06790123456790123,66.4074074074074,0)" xlink:href="#aT"/><use transform="matrix(0.06790123456790123,0,0,0.06790123456790123,81.27777777777777,0)" xlink:href="#aP"/><use transform="matrix(0.06790123456790123,0,0,0.06790123456790123,94.85802469135803,0)" xlink:href="#aQ"/></g></defs></g></svg>