<svg xmlns="http://www.w3.org/2000/svg" xmlns:xlink="http://www.w3.org/1999/xlink" xmlns:lucid="lucid" width="2280" height="928.33"><g transform="translate(440 -291.66666666666663)" lucid:page-tab-id="0_0"><path d="M500 317.67a6 6 0 0 1 6-6h388a6 6 0 0 1 6 6v238a6 6 0 0 1-6 6H506a6 6 0 0 1-6-6z" stroke="#000" stroke-opacity="0" fill="#1699d3"/><use xlink:href="#a" transform="matrix(1,0,0,1,505,316.66666666666663) translate(79.58333333333331 41.66666666666667)"/><use xlink:href="#b" transform="matrix(1,0,0,1,505,316.66666666666663) translate(39.81172839506172 74.55555555555557)"/><use xlink:href="#c" transform="matrix(1,0,0,1,505,316.66666666666663) translate(217.44135802469137 74.55555555555557)"/><use xlink:href="#d" transform="matrix(1,0,0,1,505,316.66666666666663) translate(272.9845679012346 74.55555555555557)"/><use xlink:href="#e" transform="matrix(1,0,0,1,505,316.66666666666663) translate(56.68518518518516 103.8888888888889)"/><use xlink:href="#f" transform="matrix(1,0,0,1,505,316.66666666666663) translate(106.79629629629628 103.8888888888889)"/><use xlink:href="#g" transform="matrix(1,0,0,1,505,316.66666666666663) translate(204.43827160493825 103.8888888888889)"/><use xlink:href="#h" transform="matrix(1,0,0,1,505,316.66666666666663) translate(280.35185185185185 103.8888888888889)"/><use xlink:href="#i" transform="matrix(1,0,0,1,505,316.66666666666663) translate(40.59259259259261 133.22222222222223)"/><use xlink:href="#j" transform="matrix(1,0,0,1,505,316.66666666666663) translate(127.23456790123458 133.22222222222223)"/><use xlink:href="#k" transform="matrix(1,0,0,1,505,316.66666666666663) translate(162.47530864197532 133.22222222222223)"/><use xlink:href="#l" transform="matrix(1,0,0,1,505,316.66666666666663) translate(268.1296296296296 133.22222222222223)"/><use xlink:href="#m" transform="matrix(1,0,0,1,505,316.66666666666663) translate(297.8703703703704 133.22222222222223)"/><use xlink:href="#n" transform="matrix(1,0,0,1,505,316.66666666666663) translate(195 162.5555555555556)"/><use xlink:href="#o" transform="matrix(1,0,0,1,505,316.66666666666663) translate(74.40740740740739 191.8888888888889)"/><use xlink:href="#p" transform="matrix(1,0,0,1,505,316.66666666666663) translate(116.43827160493825 191.8888888888889)"/><use xlink:href="#q" transform="matrix(1,0,0,1,505,316.66666666666663) translate(123.87345679012347 221.22222222222229)"/><use xlink:href="#r" transform="matrix(1,0,0,1,505,316.66666666666663) translate(202.4351851851852 221.22222222222229)"/><path d="M20 317.67a6 6 0 0 1 6-6h366.67a6 6 0 0 1 6 6v238a6 6 0 0 1-6 6H26a6 6 0 0 1-6-6z" stroke="#000" stroke-opacity="0" fill="#f08705"/><use xlink:href="#s" transform="matrix(1,0,0,1,25,316.66666666666663) translate(114.3148148148148 56.66666666666667)"/><use xlink:href="#t" transform="matrix(1,0,0,1,25,316.66666666666663) translate(41.50000000000003 89.55555555555556)"/><use xlink:href="#u" transform="matrix(1,0,0,1,25,316.66666666666663) translate(139.14197530864197 89.55555555555556)"/><use xlink:href="#v" transform="matrix(1,0,0,1,25,316.66666666666663) translate(215.05555555555554 89.55555555555556)"/><use xlink:href="#w" transform="matrix(1,0,0,1,25,316.66666666666663) translate(21.978395061728406 118.88888888888889)"/><use xlink:href="#x" transform="matrix(1,0,0,1,25,316.66666666666663) translate(80.16975308641975 118.88888888888889)"/><use xlink:href="#y" transform="matrix(1,0,0,1,25,316.66666666666663) translate(166.81172839506172 118.88888888888889)"/><use xlink:href="#z" transform="matrix(1,0,0,1,25,316.66666666666663) translate(253.4537037037037 118.88888888888889)"/><use xlink:href="#A" transform="matrix(1,0,0,1,25,316.66666666666663) translate(118.80555555555557 148.2222222222222)"/><use xlink:href="#B" transform="matrix(1,0,0,1,25,316.66666666666663) translate(162.12654320987656 148.2222222222222)"/><use xlink:href="#C" transform="matrix(1,0,0,1,25,316.66666666666663) translate(184.5 177.55555555555554)"/><use xlink:href="#D" transform="matrix(1,0,0,1,25,316.66666666666663) translate(91.74691358024694 206.88888888888886)"/><path d="M1000 317.67a6 6 0 0 1 6-6h368a6 6 0 0 1 6 6v238a6 6 0 0 1-6 6h-368a6 6 0 0 1-6-6z" stroke="#000" stroke-opacity="0" fill="#736ca8"/><use xlink:href="#E" transform="matrix(1,0,0,1,1005,316.66666666666663) translate(142.4537037037037 79.16666666666667)"/><use xlink:href="#F" transform="matrix(1,0,0,1,1005,316.66666666666663) translate(97.64506172839509 112.05555555555556)"/><use xlink:href="#G" transform="matrix(1,0,0,1,1005,316.66666666666663) translate(155.90432098765433 112.05555555555556)"/><use xlink:href="#C" transform="matrix(1,0,0,1,1005,316.66666666666663) translate(185 141.38888888888889)"/><use xlink:href="#H" transform="matrix(1,0,0,1,1005,316.66666666666663) translate(103.00925925925928 170.7222222222222)"/><use xlink:href="#I" transform="matrix(1,0,0,1,1005,316.66666666666663) translate(145.04012345679013 170.7222222222222)"/><path d="M500 666a6 6 0 0 1 6-6h388a6 6 0 0 1 6 6v238a6 6 0 0 1-6 6H506a6 6 0 0 1-6-6z" stroke="#000" stroke-opacity="0" fill="#e85642"/><use xlink:href="#J" transform="matrix(1,0,0,1,505,665) translate(134.9537037037037 71.66666666666667)"/><use xlink:href="#K" transform="matrix(1,0,0,1,505,665) translate(81.80864197530863 104.55555555555556)"/><use xlink:href="#L" transform="matrix(1,0,0,1,505,665) translate(259.4382716049383 104.55555555555556)"/><use xlink:href="#M" transform="matrix(1,0,0,1,505,665) translate(142.13888888888889 133.8888888888889)"/><use xlink:href="#n" transform="matrix(1,0,0,1,505,665) translate(195 163.22222222222223)"/><use xlink:href="#o" transform="matrix(1,0,0,1,505,665) translate(128.15123456790124 192.5555555555556)"/><use xlink:href="#N" transform="matrix(1,0,0,1,505,665) translate(170.1820987654321 192.5555555555556)"/><path d="M804.83 1180c0 11.05-46.93 20-104.83 20s-104.83-8.95-104.83-20v-160c0-11.05 46.93-20 104.83-20s104.83 8.95 104.83 20z" stroke="#fff" fill="#e85642"/><path d="M804.83 1020c0 11.05-46.93 20-104.83 20s-104.83-8.95-104.83-20" stroke="#fff" fill="none"/><g><use xlink:href="#O" transform="matrix(1,0,0,1,600.1666666666667,1045) translate(26.064814814814852 82.91666666666666)"/></g><path d="M-180 436.67c0 62.13-53.73 112.5-120 112.5-66.27 0-120-50.37-120-112.5s53.73-112.5 120-112.5c66.27 0 120 50.37 120 112.5z" stroke="#000" stroke-opacity="0" fill="#dfe3e8"/><g><use xlink:href="#P" transform="matrix(1,0,0,1,-415,329.16666666666663) translate(57.10376543209877 71.52777777777777)"/><use xlink:href="#Q" transform="matrix(1,0,0,1,-415,329.16666666666663) translate(17.037037037037052 98.19444444444443)"/><use xlink:href="#R" transform="matrix(1,0,0,1,-415,329.16666666666663) translate(70.06172839506173 98.19444444444443)"/><use xlink:href="#S" transform="matrix(1,0,0,1,-415,329.16666666666663) translate(168.64197530864197 98.19444444444443)"/><use xlink:href="#T" transform="matrix(1,0,0,1,-415,329.16666666666663) translate(21.388888888888914 124.86111111111109)"/><use xlink:href="#U" transform="matrix(1,0,0,1,-415,329.16666666666663) translate(60.77160493827162 124.86111111111109)"/><use xlink:href="#V" transform="matrix(1,0,0,1,-415,329.16666666666663) translate(112.5 124.86111111111109)"/><use xlink:href="#W" transform="matrix(1,0,0,1,-415,329.16666666666663) translate(150.70987654320987 124.86111111111109)"/><use xlink:href="#X" transform="matrix(1,0,0,1,-415,329.16666666666663) translate(39.81981481481484 151.52777777777774)"/></g><path d="M1820 436.67c0 62.13-53.73 112.5-120 112.5-66.27 0-120-50.37-120-112.5s53.73-112.5 120-112.5c66.27 0 120 50.37 120 112.5z" stroke="#000" stroke-opacity="0" fill="#dfe3e8"/><g><use xlink:href="#P" transform="matrix(1,0,0,1,1585,329.16666666666663) translate(57.10376543209877 71.52777777777777)"/><use xlink:href="#Q" transform="matrix(1,0,0,1,1585,329.16666666666663) translate(65.70987654320989 98.19444444444443)"/><use xlink:href="#Y" transform="matrix(1,0,0,1,1585,329.16666666666663) translate(118.73456790123457 98.19444444444443)"/><use xlink:href="#T" transform="matrix(1,0,0,1,1585,329.16666666666663) translate(46.01851851851853 124.86111111111109)"/><use xlink:href="#Z" transform="matrix(1,0,0,1,1585,329.16666666666663) translate(85.40123456790124 124.86111111111109)"/><use xlink:href="#aa" transform="matrix(1,0,0,1,1585,329.16666666666663) translate(61.4864814814815 151.52777777777774)"/><use xlink:href="#ab" transform="matrix(1,0,0,1,1585,329.16666666666663) translate(121.79512345679012 151.52777777777774)"/></g><path d="M-200 386a6 6 0 0 1 6-6H34a6 6 0 0 1 6 6v68a6 6 0 0 1-6 6h-228a6 6 0 0 1-6-6z" stroke="#000" stroke-opacity="0" fill="#fff" fill-opacity="0"/><g><use xlink:href="#ac" transform="matrix(1,0,0,1,-195,385) translate(70.96604938271605 39.24305555555556)"/></g><path d="M-177 436.67H-6.97" stroke="#5b9bd5" stroke-width="6" fill="none"/><path d="M-176.92 439.67h-3.14l.06-3-.02-2.25-.03-.75h3.13z" stroke="#5b9bd5" stroke-width=".05" fill="#5b9bd5"/><path d="M10.3 436.67l-14.27 4.63v-9.27z" stroke="#5b9bd5" stroke-width="6" fill="#5b9bd5"/><path d="M1360 386a6 6 0 0 1 6-6h228a6 6 0 0 1 6 6v68a6 6 0 0 1-6 6h-228a6 6 0 0 1-6-6z" stroke="#000" stroke-opacity="0" fill="#fff" fill-opacity="0"/><g><use xlink:href="#ad" transform="matrix(1,0,0,1,1365,385) translate(60.78086419753086 39.24305555555556)"/></g><path d="M1383 436.67h170.03M1383.08 436.67H1380" stroke="#5b9bd5" stroke-width="6" fill="none"/><path d="M1570.3 436.67l-14.27 4.63v-9.27z" stroke="#5b9bd5" stroke-width="6" fill="#5b9bd5"/><path d="M401.67 436.67h71.36" stroke="#5b9bd5" stroke-width="6" fill="none"/><path d="M401.74 439.67h-3.07v-6h3.07z" stroke="#5b9bd5" stroke-width=".05" fill="#5b9bd5"/><path d="M490.3 436.67l-14.27 4.63v-9.27z" stroke="#5b9bd5" stroke-width="6" fill="#5b9bd5"/><path d="M903 436.67h70.03" stroke="#5b9bd5" stroke-width="6" fill="none"/><path d="M903.08 439.67H900v-6h3.08z" stroke="#5b9bd5" stroke-width=".05" fill="#5b9bd5"/><path d="M990.3 436.67l-14.27 4.63v-9.27z" stroke="#5b9bd5" stroke-width="6" fill="#5b9bd5"/><path d="M646.16 564.67v68.36" stroke="#5b9bd5" stroke-width="6" fill="none"/><path d="M649.16 564.74h-6v-3.07h6z" stroke="#5b9bd5" stroke-width=".05" fill="#5b9bd5"/><path d="M646.16 650.3l-4.64-14.27h9.27z" stroke="#5b9bd5" stroke-width="6" fill="#5b9bd5"/><path d="M752.8 657v-68.36" stroke="#5b9bd5" stroke-width="6" fill="none"/><path d="M755.8 660h-6v-3.08h6z" stroke="#5b9bd5" stroke-width=".05" fill="#5b9bd5"/><path d="M752.8 571.38l4.65 14.26h-9.27z" stroke="#5b9bd5" stroke-width="6" fill="#5b9bd5"/><path d="M641.52 913v63" stroke="#5b9bd5" stroke-width="6" fill="none"/><path d="M644.52 913.08h-6V910h6z" stroke="#5b9bd5" stroke-width=".05" fill="#5b9bd5"/><path d="M641.52 993.26L636.9 979h9.26z" stroke="#5b9bd5" stroke-width="6" fill="#5b9bd5"/><path d="M749.72 998.94v-61.97" stroke="#5b9bd5" stroke-width="6" fill="none"/><path d="M752.72 1002.3l-5.74-.7h-.26v-2.74h6z" stroke="#5b9bd5" stroke-width=".05" fill="#5b9bd5"/><path d="M749.72 919.7l4.64 14.27h-9.27z" stroke="#5b9bd5" stroke-width="6" fill="#5b9bd5"/><defs><path fill="#fff" d="M67-125c0 53 21 87 73 88 37 1 54-22 65-47l45 17C233-25 199 4 140 4 58 4 20-42 15-125 8-235 124-281 211-232c18 10 29 29 36 50l-46 12c-8-25-30-41-62-41-52 0-71 34-72 86" id="ae"/><path fill="#fff" d="M140-251c80 0 125 45 125 126S219 4 139 4C58 4 15-44 15-125s44-126 125-126zm-1 214c52 0 73-35 73-88 0-50-21-86-72-86-52 0-73 35-73 86s22 88 72 88" id="af"/><path fill="#fff" d="M175 0L67-191c6 58 2 128 3 191H24v-248h59L193-55c-6-58-2-129-3-193h46V0h-61" id="ag"/><path fill="#fff" d="M136-208V0H84v-208H4v-40h212v40h-80" id="ah"/><path fill="#fff" d="M240-174c0 40-23 61-54 70L253 0h-59l-57-94H76V0H24v-248c93 4 217-23 216 74zM76-134c48-2 112 12 112-38 0-48-66-32-112-35v73" id="ai"/><path fill="#fff" d="M24 0v-248h52v208h133V0H24" id="aj"/><path fill="#fff" d="M24 0v-248h195v40H76v63h132v40H76v65h150V0H24" id="ak"/><g id="a"><use transform="matrix(0.0925925925925926,0,0,0.0925925925925926,0,0)" xlink:href="#ae"/><use transform="matrix(0.0925925925925926,0,0,0.0925925925925926,23.981481481481485,0)" xlink:href="#af"/><use transform="matrix(0.0925925925925926,0,0,0.0925925925925926,49.90740740740741,0)" xlink:href="#ag"/><use transform="matrix(0.0925925925925926,0,0,0.0925925925925926,73.8888888888889,0)" xlink:href="#ah"/><use transform="matrix(0.0925925925925926,0,0,0.0925925925925926,94.16666666666669,0)" xlink:href="#ai"/><use transform="matrix(0.0925925925925926,0,0,0.0925925925925926,118.14814814814815,0)" xlink:href="#af"/><use transform="matrix(0.0925925925925926,0,0,0.0925925925925926,144.0740740740741,0)" xlink:href="#aj"/><use transform="matrix(0.0925925925925926,0,0,0.0925925925925926,164.35185185185188,0)" xlink:href="#aj"/><use transform="matrix(0.0925925925925926,0,0,0.0925925925925926,184.62962962962965,0)" xlink:href="#ak"/><use transform="matrix(0.0925925925925926,0,0,0.0925925925925926,206.85185185185188,0)" xlink:href="#ai"/></g><path fill="#fff" d="M190-63c-7 42-38 67-86 67-59 0-84-38-90-98-12-110 154-137 174-36l-49 2c-2-19-15-32-35-32-30 0-35 28-38 64-6 74 65 87 74 30" id="al"/><path fill="#fff" d="M110-194c64 0 96 36 96 99 0 64-35 99-97 99-61 0-95-36-95-99 0-62 34-99 96-99zm-1 164c35 0 45-28 45-65 0-40-10-65-43-65-34 0-45 26-45 65 0 36 10 65 43 65" id="am"/><path fill="#fff" d="M220-157c-53 9-28 100-34 157h-49v-107c1-27-5-49-29-50C55-147 81-57 75 0H25l-1-190h47c2 12-1 28 3 38 10-53 101-56 108 0 13-22 24-43 59-42 82 1 51 116 57 194h-49v-107c-1-25-5-48-29-50" id="an"/><path fill="#fff" d="M85 4C-2 5 27-109 22-190h50c7 57-23 150 33 157 60-5 35-97 40-157h50l1 190h-47c-2-12 1-28-3-38-12 25-28 42-61 42" id="ao"/><path fill="#fff" d="M135-194c87-1 58 113 63 194h-50c-7-57 23-157-34-157-59 0-34 97-39 157H25l-1-190h47c2 12-1 28 3 38 12-26 28-41 61-42" id="ap"/><path fill="#fff" d="M25-224v-37h50v37H25zM25 0v-190h50V0H25" id="aq"/><path fill="#fff" d="M133-34C117-15 103 5 69 4 32 3 11-16 11-54c-1-60 55-63 116-61 1-26-3-47-28-47-18 1-26 9-28 27l-52-2c7-38 36-58 82-57s74 22 75 68l1 82c-1 14 12 18 25 15v27c-30 8-71 5-69-32zm-48 3c29 0 43-24 42-57-32 0-66-3-65 30 0 17 8 27 23 27" id="ar"/><path fill="#fff" d="M115-3C79 11 28 4 28-45v-112H4v-33h27l15-45h31v45h36v33H77v99c-1 23 16 31 38 25v30" id="as"/><path fill="#fff" d="M185-48c-13 30-37 53-82 52C43 2 14-33 14-96s30-98 90-98c62 0 83 45 84 108H66c0 31 8 55 39 56 18 0 30-7 34-22zm-45-69c5-46-57-63-70-21-2 6-4 13-4 21h74" id="at"/><path fill="#fff" d="M137-138c1-29-70-34-71-4 15 46 118 7 119 86 1 83-164 76-172 9l43-7c4 19 20 25 44 25 33 8 57-30 24-41C81-84 22-81 20-136c-2-80 154-74 161-7" id="au"/><g id="b"><use transform="matrix(0.06790123456790123,0,0,0.06790123456790123,0,0)" xlink:href="#al"/><use transform="matrix(0.06790123456790123,0,0,0.06790123456790123,13.580246913580247,0)" xlink:href="#am"/><use transform="matrix(0.06790123456790123,0,0,0.06790123456790123,28.450617283950617,0)" xlink:href="#an"/><use transform="matrix(0.06790123456790123,0,0,0.06790123456790123,50.17901234567901,0)" xlink:href="#an"/><use transform="matrix(0.06790123456790123,0,0,0.06790123456790123,71.9074074074074,0)" xlink:href="#ao"/><use transform="matrix(0.06790123456790123,0,0,0.06790123456790123,86.77777777777777,0)" xlink:href="#ap"/><use transform="matrix(0.06790123456790123,0,0,0.06790123456790123,101.64814814814814,0)" xlink:href="#aq"/><use transform="matrix(0.06790123456790123,0,0,0.06790123456790123,108.43827160493827,0)" xlink:href="#al"/><use transform="matrix(0.06790123456790123,0,0,0.06790123456790123,122.0185185185185,0)" xlink:href="#ar"/><use transform="matrix(0.06790123456790123,0,0,0.06790123456790123,135.59876543209876,0)" xlink:href="#as"/><use transform="matrix(0.06790123456790123,0,0,0.06790123456790123,143.679012345679,0)" xlink:href="#at"/><use transform="matrix(0.06790123456790123,0,0,0.06790123456790123,157.2592592592593,0)" xlink:href="#au"/></g><path fill="#fff" d="M231 0h-52l-39-155L100 0H48L-1-190h46L77-45c9-52 24-97 36-145h53l37 145 32-145h46" id="av"/><path fill="#fff" d="M114-157C55-157 80-60 75 0H25v-261h50l-1 109c12-26 28-41 61-42 86-1 58 113 63 194h-50c-7-57 23-157-34-157" id="aw"/><g id="c"><use transform="matrix(0.06790123456790123,0,0,0.06790123456790123,0,0)" xlink:href="#av"/><use transform="matrix(0.06790123456790123,0,0,0.06790123456790123,19.012345679012345,0)" xlink:href="#aq"/><use transform="matrix(0.06790123456790123,0,0,0.06790123456790123,25.80246913580247,0)" xlink:href="#as"/><use transform="matrix(0.06790123456790123,0,0,0.06790123456790123,33.882716049382715,0)" xlink:href="#aw"/></g><path fill="#fff" d="M230 0l2-204L168 0h-37L68-204 70 0H24v-248h70l56 185 57-185h69V0h-46" id="ax"/><path fill="#fff" d="M88-194c31-1 46 15 58 34l-1-101h50l1 261h-48c-2-10 0-23-3-31C134-8 116 4 84 4 32 4 16-41 15-95c0-56 19-97 73-99zm17 164c33 0 40-30 41-66 1-37-9-64-41-64s-38 30-39 65c0 43 13 65 39 65" id="ay"/><path fill="#fff" d="M25 0v-261h50V0H25" id="az"/><path fill="#fff" d="M76-54c-1 42 2 86-19 110H24C36 42 46 24 48 0H25v-54h51" id="aA"/><g id="d"><use transform="matrix(0.06790123456790123,0,0,0.06790123456790123,0,0)" xlink:href="#ax"/><use transform="matrix(0.06790123456790123,0,0,0.06790123456790123,20.30246913580247,0)" xlink:href="#am"/><use transform="matrix(0.06790123456790123,0,0,0.06790123456790123,35.172839506172835,0)" xlink:href="#ay"/><use transform="matrix(0.06790123456790123,0,0,0.06790123456790123,50.0432098765432,0)" xlink:href="#at"/><use transform="matrix(0.06790123456790123,0,0,0.06790123456790123,63.62345679012345,0)" xlink:href="#az"/><use transform="matrix(0.06790123456790123,0,0,0.06790123456790123,70.41358024691355,0)" xlink:href="#aA"/></g><g id="e"><use transform="matrix(0.06790123456790123,0,0,0.06790123456790123,0,0)" xlink:href="#ar"/><use transform="matrix(0.06790123456790123,0,0,0.06790123456790123,13.580246913580247,0)" xlink:href="#ap"/><use transform="matrix(0.06790123456790123,0,0,0.06790123456790123,28.450617283950617,0)" xlink:href="#ay"/></g><g id="f"><use transform="matrix(0.06790123456790123,0,0,0.06790123456790123,0,0)" xlink:href="#ay"/><use transform="matrix(0.06790123456790123,0,0,0.06790123456790123,14.87037037037037,0)" xlink:href="#at"/><use transform="matrix(0.06790123456790123,0,0,0.06790123456790123,28.450617283950617,0)" xlink:href="#al"/><use transform="matrix(0.06790123456790123,0,0,0.06790123456790123,42.03086419753086,0)" xlink:href="#aq"/><use transform="matrix(0.06790123456790123,0,0,0.06790123456790123,48.82098765432099,0)" xlink:href="#ay"/><use transform="matrix(0.06790123456790123,0,0,0.06790123456790123,63.691358024691354,0)" xlink:href="#at"/><use transform="matrix(0.06790123456790123,0,0,0.06790123456790123,77.2716049382716,0)" xlink:href="#au"/></g><g id="g"><use transform="matrix(0.06790123456790123,0,0,0.06790123456790123,0,0)" xlink:href="#av"/><use transform="matrix(0.06790123456790123,0,0,0.06790123456790123,19.012345679012345,0)" xlink:href="#aw"/><use transform="matrix(0.06790123456790123,0,0,0.06790123456790123,33.882716049382715,0)" xlink:href="#aq"/><use transform="matrix(0.06790123456790123,0,0,0.06790123456790123,40.672839506172835,0)" xlink:href="#al"/><use transform="matrix(0.06790123456790123,0,0,0.06790123456790123,54.25308641975308,0)" xlink:href="#aw"/></g><path fill="#fff" d="M128 0H69L1-190h53L99-40l48-150h52" id="aB"/><g id="h"><use transform="matrix(0.06790123456790123,0,0,0.06790123456790123,0,0)" xlink:href="#aB"/><use transform="matrix(0.06790123456790123,0,0,0.06790123456790123,13.580246913580247,0)" xlink:href="#aq"/><use transform="matrix(0.06790123456790123,0,0,0.06790123456790123,20.37037037037037,0)" xlink:href="#at"/><use transform="matrix(0.06790123456790123,0,0,0.06790123456790123,33.95061728395062,0)" xlink:href="#av"/></g><g id="i"><use transform="matrix(0.06790123456790123,0,0,0.06790123456790123,0,0)" xlink:href="#au"/><use transform="matrix(0.06790123456790123,0,0,0.06790123456790123,13.580246913580247,0)" xlink:href="#aw"/><use transform="matrix(0.06790123456790123,0,0,0.06790123456790123,28.450617283950617,0)" xlink:href="#am"/><use transform="matrix(0.06790123456790123,0,0,0.06790123456790123,43.32098765432099,0)" xlink:href="#ao"/><use transform="matrix(0.06790123456790123,0,0,0.06790123456790123,58.191358024691354,0)" xlink:href="#az"/><use transform="matrix(0.06790123456790123,0,0,0.06790123456790123,64.98148148148148,0)" xlink:href="#ay"/></g><path fill="#fff" d="M135-194c52 0 70 43 70 98 0 56-19 99-73 100-30 1-46-15-58-35L72 0H24l1-261h50v104c11-23 29-37 60-37zM114-30c31 0 40-27 40-66 0-37-7-63-39-63s-41 28-41 65c0 36 8 64 40 64" id="aC"/><g id="j"><use transform="matrix(0.06790123456790123,0,0,0.06790123456790123,0,0)" xlink:href="#aC"/><use transform="matrix(0.06790123456790123,0,0,0.06790123456790123,14.87037037037037,0)" xlink:href="#at"/></g><path fill="#fff" d="M135-150c-39-12-60 13-60 57V0H25l-1-190h47c2 13-1 29 3 40 6-28 27-53 61-41v41" id="aD"/><g id="k"><use transform="matrix(0.06790123456790123,0,0,0.06790123456790123,0,0)" xlink:href="#aD"/><use transform="matrix(0.06790123456790123,0,0,0.06790123456790123,9.506172839506172,0)" xlink:href="#at"/><use transform="matrix(0.06790123456790123,0,0,0.06790123456790123,23.086419753086417,0)" xlink:href="#as"/><use transform="matrix(0.06790123456790123,0,0,0.06790123456790123,31.166666666666664,0)" xlink:href="#ao"/><use transform="matrix(0.06790123456790123,0,0,0.06790123456790123,46.03703703703703,0)" xlink:href="#aD"/><use transform="matrix(0.06790123456790123,0,0,0.06790123456790123,55.54320987654321,0)" xlink:href="#ap"/><use transform="matrix(0.06790123456790123,0,0,0.06790123456790123,70.41358024691358,0)" xlink:href="#at"/><use transform="matrix(0.06790123456790123,0,0,0.06790123456790123,83.99382716049382,0)" xlink:href="#ay"/></g><g id="l"><use transform="matrix(0.06790123456790123,0,0,0.06790123456790123,0,0)" xlink:href="#as"/><use transform="matrix(0.06790123456790123,0,0,0.06790123456790123,8.080246913580247,0)" xlink:href="#am"/></g><g id="m"><use transform="matrix(0.06790123456790123,0,0,0.06790123456790123,0,0)" xlink:href="#ao"/><use transform="matrix(0.06790123456790123,0,0,0.06790123456790123,14.87037037037037,0)" xlink:href="#au"/><use transform="matrix(0.06790123456790123,0,0,0.06790123456790123,28.450617283950617,0)" xlink:href="#at"/><use transform="matrix(0.06790123456790123,0,0,0.06790123456790123,42.03086419753086,0)" xlink:href="#aD"/></g><path fill="#fff" d="M195-6C206 82 75 100 31 46c-4-6-6-13-8-21l49-6c3 16 16 24 34 25 40 0 42-37 40-79-11 22-30 35-61 35-53 0-70-43-70-97 0-56 18-96 73-97 30 0 46 14 59 34l2-30h47zm-90-29c32 0 41-27 41-63 0-35-9-62-40-62-32 0-39 29-40 63 0 36 9 62 39 62" id="aE"/><path fill="#fff" d="M24 0v-54h51V0H24" id="aF"/><g id="o"><use transform="matrix(0.06790123456790123,0,0,0.06790123456790123,0,0)" xlink:href="#at"/><use transform="matrix(0.06790123456790123,0,0,0.06790123456790123,13.580246913580247,0)" xlink:href="#aE"/><use transform="matrix(0.06790123456790123,0,0,0.06790123456790123,28.450617283950617,0)" xlink:href="#aF"/></g><g id="p"><use transform="matrix(0.06790123456790123,0,0,0.06790123456790123,0,0)" xlink:href="#ak"/><use transform="matrix(0.06790123456790123,0,0,0.06790123456790123,16.296296296296294,0)" xlink:href="#ap"/><use transform="matrix(0.06790123456790123,0,0,0.06790123456790123,31.166666666666664,0)" xlink:href="#as"/><use transform="matrix(0.06790123456790123,0,0,0.06790123456790123,39.24691358024691,0)" xlink:href="#aD"/><use transform="matrix(0.06790123456790123,0,0,0.06790123456790123,48.75308641975308,0)" xlink:href="#aq"/><use transform="matrix(0.06790123456790123,0,0,0.06790123456790123,55.5432098765432,0)" xlink:href="#at"/><use transform="matrix(0.06790123456790123,0,0,0.06790123456790123,69.12345679012344,0)" xlink:href="#au"/><use transform="matrix(0.06790123456790123,0,0,0.06790123456790123,82.7037037037037,0)" xlink:href="#ae"/><use transform="matrix(0.06790123456790123,0,0,0.06790123456790123,100.29012345679011,0)" xlink:href="#am"/><use transform="matrix(0.06790123456790123,0,0,0.06790123456790123,115.16049382716047,0)" xlink:href="#ap"/><use transform="matrix(0.06790123456790123,0,0,0.06790123456790123,130.03086419753086,0)" xlink:href="#as"/><use transform="matrix(0.06790123456790123,0,0,0.06790123456790123,138.11111111111111,0)" xlink:href="#aD"/><use transform="matrix(0.06790123456790123,0,0,0.06790123456790123,147.61728395061732,0)" xlink:href="#am"/><use transform="matrix(0.06790123456790123,0,0,0.06790123456790123,162.48765432098767,0)" xlink:href="#az"/><use transform="matrix(0.06790123456790123,0,0,0.06790123456790123,169.2777777777778,0)" xlink:href="#az"/><use transform="matrix(0.06790123456790123,0,0,0.06790123456790123,176.06790123456793,0)" xlink:href="#at"/><use transform="matrix(0.06790123456790123,0,0,0.06790123456790123,189.64814814814818,0)" xlink:href="#aD"/></g><g id="q"><use transform="matrix(0.06790123456790123,0,0,0.06790123456790123,0,0)" xlink:href="#ar"/><use transform="matrix(0.06790123456790123,0,0,0.06790123456790123,13.580246913580247,0)" xlink:href="#al"/><use transform="matrix(0.06790123456790123,0,0,0.06790123456790123,27.160493827160494,0)" xlink:href="#as"/><use transform="matrix(0.06790123456790123,0,0,0.06790123456790123,35.24074074074074,0)" xlink:href="#aq"/><use transform="matrix(0.06790123456790123,0,0,0.06790123456790123,42.03086419753086,0)" xlink:href="#am"/><use transform="matrix(0.06790123456790123,0,0,0.06790123456790123,56.90123456790123,0)" xlink:href="#ap"/></g><path fill="#fff" d="M144 0l-44-69L55 0H2l70-98-66-92h53l41 62 40-62h54l-67 91 71 99h-54" id="aG"/><g id="r"><use transform="matrix(0.06790123456790123,0,0,0.06790123456790123,0,0)" xlink:href="#aq"/><use transform="matrix(0.06790123456790123,0,0,0.06790123456790123,6.790123456790123,0)" xlink:href="#ap"/><use transform="matrix(0.06790123456790123,0,0,0.06790123456790123,21.660493827160494,0)" xlink:href="#ay"/><use transform="matrix(0.06790123456790123,0,0,0.06790123456790123,36.53086419753086,0)" xlink:href="#at"/><use transform="matrix(0.06790123456790123,0,0,0.06790123456790123,50.11111111111111,0)" xlink:href="#aG"/></g><path fill="#fff" d="M238-95c0 69-44 99-111 99C63 4 22-25 22-93v-155h51v151c-1 38 19 59 55 60 90 1 49-130 58-211h52v153" id="aH"/><g id="s"><use transform="matrix(0.0925925925925926,0,0,0.0925925925925926,0,0)" xlink:href="#ai"/><use transform="matrix(0.0925925925925926,0,0,0.0925925925925926,23.981481481481485,0)" xlink:href="#af"/><use transform="matrix(0.0925925925925926,0,0,0.0925925925925926,49.90740740740741,0)" xlink:href="#aH"/><use transform="matrix(0.0925925925925926,0,0,0.0925925925925926,73.8888888888889,0)" xlink:href="#ah"/><use transform="matrix(0.0925925925925926,0,0,0.0925925925925926,94.16666666666669,0)" xlink:href="#ak"/><use transform="matrix(0.0925925925925926,0,0,0.0925925925925926,116.38888888888891,0)" xlink:href="#ai"/></g><g id="t"><use transform="matrix(0.06790123456790122,0,0,0.06790123456790122,0,0)" xlink:href="#ay"/><use transform="matrix(0.06790123456790122,0,0,0.06790123456790122,14.870370370370367,0)" xlink:href="#at"/><use transform="matrix(0.06790123456790122,0,0,0.06790123456790122,28.45061728395061,0)" xlink:href="#al"/><use transform="matrix(0.06790123456790122,0,0,0.06790123456790122,42.03086419753085,0)" xlink:href="#aq"/><use transform="matrix(0.06790123456790122,0,0,0.06790123456790122,48.82098765432097,0)" xlink:href="#ay"/><use transform="matrix(0.06790123456790122,0,0,0.06790123456790122,63.69135802469134,0)" xlink:href="#at"/><use transform="matrix(0.06790123456790122,0,0,0.06790123456790122,77.27160493827158,0)" xlink:href="#au"/></g><g id="u"><use transform="matrix(0.06790123456790122,0,0,0.06790123456790122,0,0)" xlink:href="#av"/><use transform="matrix(0.06790123456790122,0,0,0.06790123456790122,19.01234567901234,0)" xlink:href="#aw"/><use transform="matrix(0.06790123456790122,0,0,0.06790123456790122,33.88271604938271,0)" xlink:href="#aq"/><use transform="matrix(0.06790123456790122,0,0,0.06790123456790122,40.67283950617283,0)" xlink:href="#al"/><use transform="matrix(0.06790123456790122,0,0,0.06790123456790122,54.253086419753075,0)" xlink:href="#aw"/></g><g id="v"><use transform="matrix(0.06790123456790122,0,0,0.06790123456790122,0,0)" xlink:href="#al"/><use transform="matrix(0.06790123456790122,0,0,0.06790123456790122,13.580246913580243,0)" xlink:href="#am"/><use transform="matrix(0.06790123456790122,0,0,0.06790123456790122,28.45061728395061,0)" xlink:href="#ap"/><use transform="matrix(0.06790123456790122,0,0,0.06790123456790122,43.32098765432097,0)" xlink:href="#as"/><use transform="matrix(0.06790123456790122,0,0,0.06790123456790122,51.40123456790122,0)" xlink:href="#aD"/><use transform="matrix(0.06790123456790122,0,0,0.06790123456790122,60.90740740740739,0)" xlink:href="#am"/><use transform="matrix(0.06790123456790122,0,0,0.06790123456790122,75.77777777777776,0)" xlink:href="#az"/><use transform="matrix(0.06790123456790122,0,0,0.06790123456790122,82.56790123456788,0)" xlink:href="#az"/><use transform="matrix(0.06790123456790122,0,0,0.06790123456790122,89.35802469135801,0)" xlink:href="#at"/><use transform="matrix(0.06790123456790122,0,0,0.06790123456790122,102.93827160493825,0)" xlink:href="#aD"/></g><path fill="#fff" d="M67-93c0 74 22 123 53 168H70C40 30 18-18 18-93s22-123 52-168h50c-32 44-53 94-53 168" id="aI"/><g id="w"><use transform="matrix(0.06790123456790122,0,0,0.06790123456790122,0,0)" xlink:href="#aI"/><use transform="matrix(0.06790123456790122,0,0,0.06790123456790122,8.080246913580245,0)" xlink:href="#ar"/><use transform="matrix(0.06790123456790122,0,0,0.06790123456790122,21.660493827160487,0)" xlink:href="#ap"/><use transform="matrix(0.06790123456790122,0,0,0.06790123456790122,36.53086419753085,0)" xlink:href="#ay"/></g><path fill="#fff" d="M102-93c0 74-22 123-52 168H0C30 29 54-18 53-93c0-74-22-123-53-168h50c30 45 52 94 52 168" id="aJ"/><g id="x"><use transform="matrix(0.06790123456790122,0,0,0.06790123456790122,0,0)" xlink:href="#ar"/><use transform="matrix(0.06790123456790122,0,0,0.06790123456790122,13.580246913580243,0)" xlink:href="#al"/><use transform="matrix(0.06790123456790122,0,0,0.06790123456790122,27.160493827160487,0)" xlink:href="#as"/><use transform="matrix(0.06790123456790122,0,0,0.06790123456790122,35.24074074074073,0)" xlink:href="#aq"/><use transform="matrix(0.06790123456790122,0,0,0.06790123456790122,42.03086419753085,0)" xlink:href="#am"/><use transform="matrix(0.06790123456790122,0,0,0.06790123456790122,56.90123456790122,0)" xlink:href="#ap"/><use transform="matrix(0.06790123456790122,0,0,0.06790123456790122,71.77160493827158,0)" xlink:href="#aJ"/></g><g id="y"><use transform="matrix(0.06790123456790122,0,0,0.06790123456790122,0,0)" xlink:href="#au"/><use transform="matrix(0.06790123456790122,0,0,0.06790123456790122,13.580246913580243,0)" xlink:href="#aw"/><use transform="matrix(0.06790123456790122,0,0,0.06790123456790122,28.45061728395061,0)" xlink:href="#am"/><use transform="matrix(0.06790123456790122,0,0,0.06790123456790122,43.32098765432097,0)" xlink:href="#ao"/><use transform="matrix(0.06790123456790122,0,0,0.06790123456790122,58.19135802469134,0)" xlink:href="#az"/><use transform="matrix(0.06790123456790122,0,0,0.06790123456790122,64.98148148148147,0)" xlink:href="#ay"/></g><path fill="#fff" d="M135-194c53 0 70 44 70 98 0 56-19 98-73 100-31 1-45-17-59-34 3 33 2 69 2 105H25l-1-265h48c2 10 0 23 3 31 11-24 29-35 60-35zM114-30c33 0 39-31 40-66 0-38-9-64-40-64-56 0-55 130 0 130" id="aK"/><g id="z"><use transform="matrix(0.06790123456790122,0,0,0.06790123456790122,0,0)" xlink:href="#aK"/><use transform="matrix(0.06790123456790122,0,0,0.06790123456790122,14.870370370370367,0)" xlink:href="#aD"/><use transform="matrix(0.06790123456790122,0,0,0.06790123456790122,24.376543209876537,0)" xlink:href="#am"/><use transform="matrix(0.06790123456790122,0,0,0.06790123456790122,39.246913580246904,0)" xlink:href="#al"/><use transform="matrix(0.06790123456790122,0,0,0.06790123456790122,52.82716049382716,0)" xlink:href="#at"/><use transform="matrix(0.06790123456790122,0,0,0.06790123456790122,66.40740740740739,0)" xlink:href="#au"/><use transform="matrix(0.06790123456790122,0,0,0.06790123456790122,79.98765432098763,0)" xlink:href="#au"/></g><g id="A"><use transform="matrix(0.06790123456790122,0,0,0.06790123456790122,0,0)" xlink:href="#as"/><use transform="matrix(0.06790123456790122,0,0,0.06790123456790122,8.080246913580245,0)" xlink:href="#aw"/><use transform="matrix(0.06790123456790122,0,0,0.06790123456790122,22.950617283950614,0)" xlink:href="#at"/></g><path fill="#fff" d="M84 4C32 4 15-41 15-95c0-55 18-99 73-99 29 0 47 12 58 34l2-30h48l-1 265h-49V-32C136-9 114 4 84 4zm21-34c32 0 41-29 41-66 0-36-9-64-40-64-33 0-39 30-40 65 0 43 13 65 39 65" id="aL"/><g id="B"><use transform="matrix(0.06790123456790122,0,0,0.06790123456790122,0,0)" xlink:href="#aD"/><use transform="matrix(0.06790123456790122,0,0,0.06790123456790122,9.50617283950617,0)" xlink:href="#at"/><use transform="matrix(0.06790123456790122,0,0,0.06790123456790122,23.086419753086414,0)" xlink:href="#aL"/><use transform="matrix(0.06790123456790122,0,0,0.06790123456790122,37.95679012345679,0)" xlink:href="#ao"/><use transform="matrix(0.06790123456790122,0,0,0.06790123456790122,52.82716049382716,0)" xlink:href="#at"/><use transform="matrix(0.06790123456790122,0,0,0.06790123456790122,66.40740740740739,0)" xlink:href="#au"/><use transform="matrix(0.06790123456790122,0,0,0.06790123456790122,79.98765432098763,0)" xlink:href="#as"/></g><path fill="#fff" d="M121-226c-27-7-43 5-38 36h38v33H83V0H34v-157H6v-33h28c-9-59 32-81 87-68v32" id="aM"/><path fill="#fff" d="M4 7l51-268h42L46 7H4" id="aN"/><g id="D"><use transform="matrix(0.06790123456790122,0,0,0.06790123456790122,0,0)" xlink:href="#al"/><use transform="matrix(0.06790123456790122,0,0,0.06790123456790122,13.580246913580243,0)" xlink:href="#am"/><use transform="matrix(0.06790123456790122,0,0,0.06790123456790122,28.45061728395061,0)" xlink:href="#ap"/><use transform="matrix(0.06790123456790122,0,0,0.06790123456790122,43.32098765432097,0)" xlink:href="#aM"/><use transform="matrix(0.06790123456790122,0,0,0.06790123456790122,51.40123456790122,0)" xlink:href="#aq"/><use transform="matrix(0.06790123456790122,0,0,0.06790123456790122,58.19135802469134,0)" xlink:href="#aE"/><use transform="matrix(0.06790123456790122,0,0,0.06790123456790122,73.0617283950617,0)" xlink:href="#aN"/><use transform="matrix(0.06790123456790122,0,0,0.06790123456790122,79.85185185185183,0)" xlink:href="#aD"/><use transform="matrix(0.06790123456790122,0,0,0.06790123456790122,89.358024691358,0)" xlink:href="#am"/><use transform="matrix(0.06790123456790122,0,0,0.06790123456790122,104.22839506172836,0)" xlink:href="#ao"/><use transform="matrix(0.06790123456790122,0,0,0.06790123456790122,119.09876543209873,0)" xlink:href="#as"/><use transform="matrix(0.06790123456790122,0,0,0.06790123456790122,127.17901234567897,0)" xlink:href="#at"/><use transform="matrix(0.06790123456790122,0,0,0.06790123456790122,140.7592592592592,0)" xlink:href="#au"/><use transform="matrix(0.06790123456790122,0,0,0.06790123456790122,154.33950617283946,0)" xlink:href="#aF"/><use transform="matrix(0.06790123456790122,0,0,0.06790123456790122,161.1296296296296,0)" xlink:href="#aD"/><use transform="matrix(0.06790123456790122,0,0,0.06790123456790122,170.63580246913577,0)" xlink:href="#aC"/></g><path fill="#fff" d="M147 0H94L2-248h55l64 206c17-72 42-137 63-206h54" id="aO"/><path fill="#fff" d="M24 0v-248h52V0H24" id="aP"/><path fill="#fff" d="M275 0h-61l-44-196L126 0H64L0-248h53L97-49l45-199h58l43 199 44-199h52" id="aQ"/><g id="E"><use transform="matrix(0.0925925925925926,0,0,0.0925925925925926,0,0)" xlink:href="#aO"/><use transform="matrix(0.0925925925925926,0,0,0.0925925925925926,22.222222222222225,0)" xlink:href="#aP"/><use transform="matrix(0.0925925925925926,0,0,0.0925925925925926,31.481481481481485,0)" xlink:href="#ak"/><use transform="matrix(0.0925925925925926,0,0,0.0925925925925926,53.70370370370371,0)" xlink:href="#aQ"/></g><g id="F"><use transform="matrix(0.06790123456790122,0,0,0.06790123456790122,0,0)" xlink:href="#aw"/><use transform="matrix(0.06790123456790122,0,0,0.06790123456790122,14.870370370370367,0)" xlink:href="#as"/><use transform="matrix(0.06790123456790122,0,0,0.06790123456790122,22.950617283950614,0)" xlink:href="#an"/><use transform="matrix(0.06790123456790122,0,0,0.06790123456790122,44.679012345679,0)" xlink:href="#az"/></g><g id="G"><use transform="matrix(0.06790123456790122,0,0,0.06790123456790122,0,0)" xlink:href="#ay"/><use transform="matrix(0.06790123456790122,0,0,0.06790123456790122,14.870370370370367,0)" xlink:href="#am"/><use transform="matrix(0.06790123456790122,0,0,0.06790123456790122,29.740740740740733,0)" xlink:href="#al"/><use transform="matrix(0.06790123456790122,0,0,0.06790123456790122,43.32098765432097,0)" xlink:href="#ao"/><use transform="matrix(0.06790123456790122,0,0,0.06790123456790122,58.19135802469134,0)" xlink:href="#an"/><use transform="matrix(0.06790123456790122,0,0,0.06790123456790122,79.91975308641973,0)" xlink:href="#at"/><use transform="matrix(0.06790123456790122,0,0,0.06790123456790122,93.49999999999997,0)" xlink:href="#ap"/><use transform="matrix(0.06790123456790122,0,0,0.06790123456790122,108.37037037037034,0)" xlink:href="#as"/></g><g id="H"><use transform="matrix(0.06790123456790122,0,0,0.06790123456790122,0,0)" xlink:href="#at"/><use transform="matrix(0.06790123456790122,0,0,0.06790123456790122,13.580246913580243,0)" xlink:href="#aE"/><use transform="matrix(0.06790123456790122,0,0,0.06790123456790122,28.45061728395061,0)" xlink:href="#aF"/></g><g id="I"><use transform="matrix(0.06790123456790122,0,0,0.06790123456790122,0,0)" xlink:href="#aq"/><use transform="matrix(0.06790123456790122,0,0,0.06790123456790122,6.790123456790122,0)" xlink:href="#ap"/><use transform="matrix(0.06790123456790122,0,0,0.06790123456790122,21.660493827160487,0)" xlink:href="#ay"/><use transform="matrix(0.06790123456790122,0,0,0.06790123456790122,36.53086419753085,0)" xlink:href="#at"/><use transform="matrix(0.06790123456790122,0,0,0.06790123456790122,50.1111111111111,0)" xlink:href="#aG"/><use transform="matrix(0.06790123456790122,0,0,0.06790123456790122,63.69135802469134,0)" xlink:href="#aF"/><use transform="matrix(0.06790123456790122,0,0,0.06790123456790122,70.48148148148147,0)" xlink:href="#aw"/><use transform="matrix(0.06790123456790122,0,0,0.06790123456790122,85.35185185185183,0)" xlink:href="#as"/><use transform="matrix(0.06790123456790122,0,0,0.06790123456790122,93.43209876543207,0)" xlink:href="#an"/><use transform="matrix(0.06790123456790122,0,0,0.06790123456790122,115.16049382716047,0)" xlink:href="#az"/></g><path fill="#fff" d="M24-248c120-7 223 5 221 122C244-46 201 0 124 0H24v-248zM76-40c74 7 117-18 117-86 0-67-45-88-117-82v168" id="aR"/><g id="J"><use transform="matrix(0.0925925925925926,0,0,0.0925925925925926,0,0)" xlink:href="#ax"/><use transform="matrix(0.0925925925925926,0,0,0.0925925925925926,27.685185185185187,0)" xlink:href="#af"/><use transform="matrix(0.0925925925925926,0,0,0.0925925925925926,53.611111111111114,0)" xlink:href="#aR"/><use transform="matrix(0.0925925925925926,0,0,0.0925925925925926,77.5925925925926,0)" xlink:href="#ak"/><use transform="matrix(0.0925925925925926,0,0,0.0925925925925926,99.81481481481482,0)" xlink:href="#aj"/></g><g id="K"><use transform="matrix(0.06790123456790123,0,0,0.06790123456790123,0,0)" xlink:href="#al"/><use transform="matrix(0.06790123456790123,0,0,0.06790123456790123,13.580246913580247,0)" xlink:href="#am"/><use transform="matrix(0.06790123456790123,0,0,0.06790123456790123,28.450617283950617,0)" xlink:href="#an"/><use transform="matrix(0.06790123456790123,0,0,0.06790123456790123,50.17901234567901,0)" xlink:href="#an"/><use transform="matrix(0.06790123456790123,0,0,0.06790123456790123,71.9074074074074,0)" xlink:href="#ao"/><use transform="matrix(0.06790123456790123,0,0,0.06790123456790123,86.77777777777777,0)" xlink:href="#ap"/><use transform="matrix(0.06790123456790123,0,0,0.06790123456790123,101.64814814814814,0)" xlink:href="#aq"/><use transform="matrix(0.06790123456790123,0,0,0.06790123456790123,108.43827160493827,0)" xlink:href="#al"/><use transform="matrix(0.06790123456790123,0,0,0.06790123456790123,122.0185185185185,0)" xlink:href="#ar"/><use transform="matrix(0.06790123456790123,0,0,0.06790123456790123,135.59876543209876,0)" xlink:href="#as"/><use transform="matrix(0.06790123456790123,0,0,0.06790123456790123,143.679012345679,0)" xlink:href="#at"/><use transform="matrix(0.06790123456790123,0,0,0.06790123456790123,157.2592592592593,0)" xlink:href="#au"/></g><g id="L"><use transform="matrix(0.06790123456790123,0,0,0.06790123456790123,0,0)" xlink:href="#av"/><use transform="matrix(0.06790123456790123,0,0,0.06790123456790123,19.012345679012345,0)" xlink:href="#aq"/><use transform="matrix(0.06790123456790123,0,0,0.06790123456790123,25.80246913580247,0)" xlink:href="#as"/><use transform="matrix(0.06790123456790123,0,0,0.06790123456790123,33.882716049382715,0)" xlink:href="#aw"/></g><g id="M"><use transform="matrix(0.06790123456790123,0,0,0.06790123456790123,0,0)" xlink:href="#ay"/><use transform="matrix(0.06790123456790123,0,0,0.06790123456790123,14.87037037037037,0)" xlink:href="#ar"/><use transform="matrix(0.06790123456790123,0,0,0.06790123456790123,28.450617283950617,0)" xlink:href="#as"/><use transform="matrix(0.06790123456790123,0,0,0.06790123456790123,36.53086419753086,0)" xlink:href="#ar"/><use transform="matrix(0.06790123456790123,0,0,0.06790123456790123,50.11111111111111,0)" xlink:href="#aC"/><use transform="matrix(0.06790123456790123,0,0,0.06790123456790123,64.98148148148148,0)" xlink:href="#ar"/><use transform="matrix(0.06790123456790123,0,0,0.06790123456790123,78.56172839506172,0)" xlink:href="#au"/><use transform="matrix(0.06790123456790123,0,0,0.06790123456790123,92.14197530864197,0)" xlink:href="#at"/></g><path fill="#fff" d="M123 10C108 53 80 86 19 72V37c35 8 53-11 59-39L3-190h52l48 148c12-52 28-100 44-148h51" id="aS"/><g id="N"><use transform="matrix(0.06790123456790123,0,0,0.06790123456790123,0,0)" xlink:href="#ak"/><use transform="matrix(0.06790123456790123,0,0,0.06790123456790123,16.296296296296294,0)" xlink:href="#ap"/><use transform="matrix(0.06790123456790123,0,0,0.06790123456790123,31.166666666666664,0)" xlink:href="#as"/><use transform="matrix(0.06790123456790123,0,0,0.06790123456790123,39.24691358024691,0)" xlink:href="#aD"/><use transform="matrix(0.06790123456790123,0,0,0.06790123456790123,48.75308641975308,0)" xlink:href="#aS"/><use transform="matrix(0.06790123456790123,0,0,0.06790123456790123,60.5,0)" xlink:href="#aF"/><use transform="matrix(0.06790123456790123,0,0,0.06790123456790123,67.29012345679011,0)" xlink:href="#aD"/><use transform="matrix(0.06790123456790123,0,0,0.06790123456790123,76.79629629629629,0)" xlink:href="#aC"/></g><g id="O"><use transform="matrix(0.09259259259259256,0,0,0.09259259259259256,0,0)" xlink:href="#aR"/><use transform="matrix(0.09259259259259256,0,0,0.09259259259259256,23.981481481481474,0)" xlink:href="#ar"/><use transform="matrix(0.09259259259259256,0,0,0.09259259259259256,42.499999999999986,0)" xlink:href="#as"/><use transform="matrix(0.09259259259259256,0,0,0.09259259259259256,53.51851851851851,0)" xlink:href="#ar"/><use transform="matrix(0.09259259259259256,0,0,0.09259259259259256,72.03703703703701,0)" xlink:href="#aC"/><use transform="matrix(0.09259259259259256,0,0,0.09259259259259256,92.31481481481478,0)" xlink:href="#ar"/><use transform="matrix(0.09259259259259256,0,0,0.09259259259259256,110.8333333333333,0)" xlink:href="#au"/><use transform="matrix(0.09259259259259256,0,0,0.09259259259259256,129.3518518518518,0)" xlink:href="#at"/></g><path fill="#3a414a" d="M182-130c37 4 62 22 62 59C244 23 116-4 24 0v-248c84 5 203-23 205 63 0 31-19 50-47 55zM76-148c40-3 101 13 101-30 0-44-60-28-101-31v61zm0 110c48-3 116 14 116-37 0-48-69-32-116-35v72" id="aT"/><path fill="#3a414a" d="M240-174c0 40-23 61-54 70L253 0h-59l-57-94H76V0H24v-248c93 4 217-23 216 74zM76-134c48-2 112 12 112-38 0-48-66-32-112-35v73" id="aU"/><path fill="#3a414a" d="M140-251c80 0 125 45 125 126S219 4 139 4C58 4 15-44 15-125s44-126 125-126zm-1 214c52 0 73-35 73-88 0-50-21-86-72-86-52 0-73 35-73 86s22 88 72 88" id="aV"/><path fill="#3a414a" d="M275 0h-61l-44-196L126 0H64L0-248h53L97-49l45-199h58l43 199 44-199h52" id="aW"/><path fill="#3a414a" d="M169-182c-1-43-94-46-97-3 18 66 151 10 154 114 3 95-165 93-204 36-6-8-10-19-12-30l50-8c3 46 112 56 116 5-17-69-150-10-154-114-4-87 153-88 188-35 5 8 8 18 10 28" id="aX"/><path fill="#3a414a" d="M24 0v-248h195v40H76v63h132v40H76v65h150V0H24" id="aY"/><g id="P"><use transform="matrix(0.061728395061728385,0,0,0.061728395061728385,0,0)" xlink:href="#aT"/><use transform="matrix(0.061728395061728385,0,0,0.061728395061728385,15.987654320987652,0)" xlink:href="#aU"/><use transform="matrix(0.061728395061728385,0,0,0.061728395061728385,31.975308641975303,0)" xlink:href="#aV"/><use transform="matrix(0.061728395061728385,0,0,0.061728395061728385,49.25925925925925,0)" xlink:href="#aW"/><use transform="matrix(0.061728395061728385,0,0,0.061728395061728385,70.18518518518518,0)" xlink:href="#aX"/><use transform="matrix(0.061728395061728385,0,0,0.061728395061728385,84.99999999999999,0)" xlink:href="#aY"/><use transform="matrix(0.061728395061728385,0,0,0.061728395061728385,99.8148148148148,0)" xlink:href="#aU"/></g><path fill="#3a414a" d="M85 4C-2 5 27-109 22-190h50c7 57-23 150 33 157 60-5 35-97 40-157h50l1 190h-47c-2-12 1-28-3-38-12 25-28 42-61 42" id="aZ"/><path fill="#3a414a" d="M137-138c1-29-70-34-71-4 15 46 118 7 119 86 1 83-164 76-172 9l43-7c4 19 20 25 44 25 33 8 57-30 24-41C81-84 22-81 20-136c-2-80 154-74 161-7" id="ba"/><path fill="#3a414a" d="M185-48c-13 30-37 53-82 52C43 2 14-33 14-96s30-98 90-98c62 0 83 45 84 108H66c0 31 8 55 39 56 18 0 30-7 34-22zm-45-69c5-46-57-63-70-21-2 6-4 13-4 21h74" id="bb"/><path fill="#3a414a" d="M135-150c-39-12-60 13-60 57V0H25l-1-190h47c2 13-1 29 3 40 6-28 27-53 61-41v41" id="bc"/><g id="Q"><use transform="matrix(0.061728395061728385,0,0,0.061728395061728385,0,0)" xlink:href="#aZ"/><use transform="matrix(0.061728395061728385,0,0,0.061728395061728385,13.518518518518515,0)" xlink:href="#ba"/><use transform="matrix(0.061728395061728385,0,0,0.061728395061728385,25.864197530864192,0)" xlink:href="#bb"/><use transform="matrix(0.061728395061728385,0,0,0.061728395061728385,38.20987654320987,0)" xlink:href="#bc"/></g><path fill="#3a414a" d="M25-224v-37h50v37H25zM25 0v-190h50V0H25" id="bd"/><path fill="#3a414a" d="M135-194c87-1 58 113 63 194h-50c-7-57 23-157-34-157-59 0-34 97-39 157H25l-1-190h47c2 12-1 28 3 38 12-26 28-41 61-42" id="be"/><path fill="#3a414a" d="M115-3C79 11 28 4 28-45v-112H4v-33h27l15-45h31v45h36v33H77v99c-1 23 16 31 38 25v30" id="bf"/><path fill="#3a414a" d="M133-34C117-15 103 5 69 4 32 3 11-16 11-54c-1-60 55-63 116-61 1-26-3-47-28-47-18 1-26 9-28 27l-52-2c7-38 36-58 82-57s74 22 75 68l1 82c-1 14 12 18 25 15v27c-30 8-71 5-69-32zm-48 3c29 0 43-24 42-57-32 0-66-3-65 30 0 17 8 27 23 27" id="bg"/><path fill="#3a414a" d="M190-63c-7 42-38 67-86 67-59 0-84-38-90-98-12-110 154-137 174-36l-49 2c-2-19-15-32-35-32-30 0-35 28-38 64-6 74 65 87 74 30" id="bh"/><g id="R"><use transform="matrix(0.061728395061728385,0,0,0.061728395061728385,0,0)" xlink:href="#bd"/><use transform="matrix(0.061728395061728385,0,0,0.061728395061728385,6.1728395061728385,0)" xlink:href="#be"/><use transform="matrix(0.061728395061728385,0,0,0.061728395061728385,19.691358024691354,0)" xlink:href="#bf"/><use transform="matrix(0.061728395061728385,0,0,0.061728395061728385,27.03703703703703,0)" xlink:href="#bb"/><use transform="matrix(0.061728395061728385,0,0,0.061728395061728385,39.38271604938271,0)" xlink:href="#bc"/><use transform="matrix(0.061728395061728385,0,0,0.061728395061728385,48.02469135802468,0)" xlink:href="#bg"/><use transform="matrix(0.061728395061728385,0,0,0.061728395061728385,60.37037037037036,0)" xlink:href="#bh"/><use transform="matrix(0.061728395061728385,0,0,0.061728395061728385,72.71604938271604,0)" xlink:href="#bf"/><use transform="matrix(0.061728395061728385,0,0,0.061728395061728385,80.06172839506172,0)" xlink:href="#ba"/></g><path fill="#3a414a" d="M231 0h-52l-39-155L100 0H48L-1-190h46L77-45c9-52 24-97 36-145h53l37 145 32-145h46" id="bi"/><path fill="#3a414a" d="M114-157C55-157 80-60 75 0H25v-261h50l-1 109c12-26 28-41 61-42 86-1 58 113 63 194h-50c-7-57 23-157-34-157" id="bj"/><g id="S"><use transform="matrix(0.061728395061728385,0,0,0.061728395061728385,0,0)" xlink:href="#bi"/><use transform="matrix(0.061728395061728385,0,0,0.061728395061728385,17.28395061728395,0)" xlink:href="#bd"/><use transform="matrix(0.061728395061728385,0,0,0.061728395061728385,23.456790123456788,0)" xlink:href="#bf"/><use transform="matrix(0.061728395061728385,0,0,0.061728395061728385,30.802469135802465,0)" xlink:href="#bj"/></g><g id="T"><use transform="matrix(0.061728395061728385,0,0,0.061728395061728385,0,0)" xlink:href="#bf"/><use transform="matrix(0.061728395061728385,0,0,0.061728395061728385,7.345679012345678,0)" xlink:href="#bj"/><use transform="matrix(0.061728395061728385,0,0,0.061728395061728385,20.864197530864192,0)" xlink:href="#bb"/></g><path fill="#3a414a" d="M135-194c53 0 70 44 70 98 0 56-19 98-73 100-31 1-45-17-59-34 3 33 2 69 2 105H25l-1-265h48c2 10 0 23 3 31 11-24 29-35 60-35zM114-30c33 0 39-31 40-66 0-38-9-64-40-64-56 0-55 130 0 130" id="bk"/><path fill="#3a414a" d="M76-54c-1 42 2 86-19 110H24C36 42 46 24 48 0H25v-54h51" id="bl"/><g id="U"><use transform="matrix(0.061728395061728385,0,0,0.061728395061728385,0,0)" xlink:href="#bg"/><use transform="matrix(0.061728395061728385,0,0,0.061728395061728385,12.345679012345677,0)" xlink:href="#bk"/><use transform="matrix(0.061728395061728385,0,0,0.061728395061728385,25.864197530864192,0)" xlink:href="#bk"/><use transform="matrix(0.061728395061728385,0,0,0.061728395061728385,39.38271604938271,0)" xlink:href="#bl"/></g><path fill="#3a414a" d="M195-6C206 82 75 100 31 46c-4-6-6-13-8-21l49-6c3 16 16 24 34 25 40 0 42-37 40-79-11 22-30 35-61 35-53 0-70-43-70-97 0-56 18-96 73-97 30 0 46 14 59 34l2-30h47zm-90-29c32 0 41-27 41-63 0-35-9-62-40-62-32 0-39 29-40 63 0 36 9 62 39 62" id="bm"/><path fill="#3a414a" d="M24 0v-54h51V0H24" id="bn"/><g id="V"><use transform="matrix(0.061728395061728385,0,0,0.061728395061728385,0,0)" xlink:href="#bb"/><use transform="matrix(0.061728395061728385,0,0,0.061728395061728385,12.345679012345677,0)" xlink:href="#bm"/><use transform="matrix(0.061728395061728385,0,0,0.061728395061728385,25.864197530864192,0)" xlink:href="#bn"/></g><path fill="#3a414a" d="M123 10C108 53 80 86 19 72V37c35 8 53-11 59-39L3-190h52l48 148c12-52 28-100 44-148h51" id="bo"/><g id="W"><use transform="matrix(0.061728395061728385,0,0,0.061728395061728385,0,0)" xlink:href="#bf"/><use transform="matrix(0.061728395061728385,0,0,0.061728395061728385,7.345679012345678,0)" xlink:href="#bo"/><use transform="matrix(0.061728395061728385,0,0,0.061728395061728385,19.691358024691354,0)" xlink:href="#bk"/><use transform="matrix(0.061728395061728385,0,0,0.061728395061728385,33.20987654320987,0)" xlink:href="#bb"/><use transform="matrix(0.061728395061728385,0,0,0.061728395061728385,45.55555555555555,0)" xlink:href="#ba"/></g><path fill="#3a414a" d="M220-157c-53 9-28 100-34 157h-49v-107c1-27-5-49-29-50C55-147 81-57 75 0H25l-1-190h47c2 12-1 28 3 38 10-53 101-56 108 0 13-22 24-43 59-42 82 1 51 116 57 194h-49v-107c-1-25-5-48-29-50" id="bp"/><path fill="#3a414a" d="M4 7l51-268h42L46 7H4" id="bq"/><g id="X"><use transform="matrix(0.061728395061728385,0,0,0.061728395061728385,0,0)" xlink:href="#bp"/><use transform="matrix(0.061728395061728385,0,0,0.061728395061728385,19.75308641975308,0)" xlink:href="#bo"/><use transform="matrix(0.061728395061728385,0,0,0.061728395061728385,32.09876543209876,0)" xlink:href="#bg"/><use transform="matrix(0.061728395061728385,0,0,0.061728395061728385,44.444444444444436,0)" xlink:href="#bk"/><use transform="matrix(0.061728395061728385,0,0,0.061728395061728385,57.96296296296295,0)" xlink:href="#bk"/><use transform="matrix(0.061728395061728385,0,0,0.061728395061728385,71.48148148148147,0)" xlink:href="#bq"/><use transform="matrix(0.061728395061728385,0,0,0.061728395061728385,77.6543209876543,0)" xlink:href="#bb"/><use transform="matrix(0.061728395061728385,0,0,0.061728395061728385,89.99999999999997,0)" xlink:href="#be"/><use transform="matrix(0.061728395061728385,0,0,0.061728395061728385,103.51851851851849,0)" xlink:href="#bf"/><use transform="matrix(0.061728395061728385,0,0,0.061728395061728385,110.86419753086417,0)" xlink:href="#bc"/><use transform="matrix(0.061728395061728385,0,0,0.061728395061728385,119.50617283950615,0)" xlink:href="#bd"/><use transform="matrix(0.061728395061728385,0,0,0.061728395061728385,125.67901234567898,0)" xlink:href="#bb"/><use transform="matrix(0.061728395061728385,0,0,0.061728395061728385,138.02469135802465,0)" xlink:href="#ba"/></g><g id="Y"><use transform="matrix(0.061728395061728385,0,0,0.061728395061728385,0,0)" xlink:href="#bm"/><use transform="matrix(0.061728395061728385,0,0,0.061728395061728385,13.518518518518515,0)" xlink:href="#bb"/><use transform="matrix(0.061728395061728385,0,0,0.061728395061728385,25.864197530864192,0)" xlink:href="#bf"/><use transform="matrix(0.061728395061728385,0,0,0.061728395061728385,33.20987654320987,0)" xlink:href="#ba"/></g><path fill="#3a414a" d="M110-194c64 0 96 36 96 99 0 64-35 99-97 99-61 0-95-36-95-99 0-62 34-99 96-99zm-1 164c35 0 45-28 45-65 0-40-10-65-43-65-34 0-45 26-45 65 0 36 10 65 43 65" id="br"/><g id="Z"><use transform="matrix(0.061728395061728385,0,0,0.061728395061728385,0,0)" xlink:href="#bc"/><use transform="matrix(0.061728395061728385,0,0,0.061728395061728385,8.641975308641975,0)" xlink:href="#bb"/><use transform="matrix(0.061728395061728385,0,0,0.061728395061728385,20.98765432098765,0)" xlink:href="#ba"/><use transform="matrix(0.061728395061728385,0,0,0.061728395061728385,33.33333333333333,0)" xlink:href="#bk"/><use transform="matrix(0.061728395061728385,0,0,0.061728395061728385,46.85185185185185,0)" xlink:href="#br"/><use transform="matrix(0.061728395061728385,0,0,0.061728395061728385,60.37037037037037,0)" xlink:href="#be"/><use transform="matrix(0.061728395061728385,0,0,0.061728395061728385,73.88888888888889,0)" xlink:href="#ba"/><use transform="matrix(0.061728395061728385,0,0,0.061728395061728385,86.23456790123456,0)" xlink:href="#bb"/></g><path fill="#3a414a" d="M67-93c0 74 22 123 53 168H70C40 30 18-18 18-93s22-123 52-168h50c-32 44-53 94-53 168" id="bs"/><path fill="#3a414a" d="M25 0v-261h50V0H25" id="bt"/><g id="aa"><use transform="matrix(0.061728395061728385,0,0,0.061728395061728385,0,0)" xlink:href="#bs"/><use transform="matrix(0.061728395061728385,0,0,0.061728395061728385,7.345679012345678,0)" xlink:href="#bj"/><use transform="matrix(0.061728395061728385,0,0,0.061728395061728385,20.864197530864192,0)" xlink:href="#bf"/><use transform="matrix(0.061728395061728385,0,0,0.061728395061728385,28.20987654320987,0)" xlink:href="#bp"/><use transform="matrix(0.061728395061728385,0,0,0.061728395061728385,47.96296296296295,0)" xlink:href="#bt"/></g><path fill="#3a414a" d="M88-194c31-1 46 15 58 34l-1-101h50l1 261h-48c-2-10 0-23-3-31C134-8 116 4 84 4 32 4 16-41 15-95c0-56 19-97 73-99zm17 164c33 0 40-30 41-66 1-37-9-64-41-64s-38 30-39 65c0 43 13 65 39 65" id="bu"/><path fill="#3a414a" d="M102-93c0 74-22 123-52 168H0C30 29 54-18 53-93c0-74-22-123-53-168h50c30 45 52 94 52 168" id="bv"/><g id="ab"><use transform="matrix(0.061728395061728385,0,0,0.061728395061728385,0,0)" xlink:href="#bu"/><use transform="matrix(0.061728395061728385,0,0,0.061728395061728385,13.518518518518515,0)" xlink:href="#br"/><use transform="matrix(0.061728395061728385,0,0,0.061728395061728385,27.03703703703703,0)" xlink:href="#bh"/><use transform="matrix(0.061728395061728385,0,0,0.061728395061728385,39.38271604938271,0)" xlink:href="#bv"/></g><path fill="#3a414a" d="M84 4C32 4 15-41 15-95c0-55 18-99 73-99 29 0 47 12 58 34l2-30h48l-1 265h-49V-32C136-9 114 4 84 4zm21-34c32 0 41-29 41-66 0-36-9-64-40-64-33 0-39 30-40 65 0 43 13 65 39 65" id="bw"/><g id="ac"><use transform="matrix(0.06790123456790123,0,0,0.06790123456790123,0,0)" xlink:href="#bc"/><use transform="matrix(0.06790123456790123,0,0,0.06790123456790123,9.506172839506172,0)" xlink:href="#bb"/><use transform="matrix(0.06790123456790123,0,0,0.06790123456790123,23.086419753086417,0)" xlink:href="#bw"/><use transform="matrix(0.06790123456790123,0,0,0.06790123456790123,37.95679012345679,0)" xlink:href="#aZ"/><use transform="matrix(0.06790123456790123,0,0,0.06790123456790123,52.82716049382715,0)" xlink:href="#bb"/><use transform="matrix(0.06790123456790123,0,0,0.06790123456790123,66.40740740740739,0)" xlink:href="#ba"/><use transform="matrix(0.06790123456790123,0,0,0.06790123456790123,79.98765432098764,0)" xlink:href="#bf"/></g><g id="ad"><use transform="matrix(0.06790123456790123,0,0,0.06790123456790123,0,0)" xlink:href="#bc"/><use transform="matrix(0.06790123456790123,0,0,0.06790123456790123,9.506172839506172,0)" xlink:href="#bb"/><use transform="matrix(0.06790123456790123,0,0,0.06790123456790123,23.086419753086417,0)" xlink:href="#ba"/><use transform="matrix(0.06790123456790123,0,0,0.06790123456790123,36.666666666666664,0)" xlink:href="#bk"/><use transform="matrix(0.06790123456790123,0,0,0.06790123456790123,51.537037037037045,0)" xlink:href="#br"/><use transform="matrix(0.06790123456790123,0,0,0.06790123456790123,66.4074074074074,0)" xlink:href="#be"/><use transform="matrix(0.06790123456790123,0,0,0.06790123456790123,81.27777777777777,0)" xlink:href="#ba"/><use transform="matrix(0.06790123456790123,0,0,0.06790123456790123,94.85802469135803,0)" xlink:href="#bb"/></g></defs></g></svg>